<svg width="327" height="163" viewBox="0 0 327 163" fill="none" xmlns="http://www.w3.org/2000/svg">
    <rect width="327" height="163" rx="20" fill="#FFE0E6"/>
    <mask id="mask0_2118_14277" style="mask-type:alpha" maskUnits="userSpaceOnUse" x="0" y="0" width="327" height="163">
        <rect width="327" height="163" rx="20" fill="#C4D0FB"/>
    </mask>
    <g mask="url(#mask0_2118_14277)">
        <path opacity="0.35" d="M400.533 46.6384H265.958C265.958 46.6384 272.595 26.3586 286.448 26.3586C296.821 26.3586 299.324 35.1473 309.282 35.1473C319.241 35.1473 325.912 13 340.971 13C356.814 13 364.63 38.3357 378.92 41.1127C396.466 44.5189 400.533 46.6384 400.533 46.6384Z" fill="white"/>
        <path d="M274.237 186.77H419.842C419.842 186.77 415.08 164.448 401.49 164.448C389.763 164.448 379.841 177.758 369.953 177.758C360.065 177.758 355.133 148.278 335.819 148.278C317.852 148.278 303.425 179.216 289.348 181.947C277.214 184.3 274.237 186.77 274.237 186.77Z" fill="#F2F6F9"/>
        <path opacity="0.35" d="M97.0014 70.6586L102.85 72.2154C103.104 76.7574 104.82 81.0953 107.744 84.5806C110.668 88.0658 114.641 90.5113 119.07 91.5513C123.499 92.5915 128.145 92.1704 132.313 90.3512C136.484 88.5319 139.953 85.4121 142.201 81.458L143.103 80.8913C146.343 78.8552 148.643 75.6152 149.496 71.8839C150.347 68.1526 149.683 64.2356 147.646 60.9946C147.277 60.4075 146.69 59.9907 146.013 59.8358C145.337 59.6807 144.627 59.8001 144.038 60.1677L139.723 62.8802C138.928 60.9363 137.718 59.1896 136.177 57.7618C135.669 57.2907 134.994 57.0406 134.3 57.0662C133.606 57.0921 132.953 57.3913 132.479 57.8989L120.288 71.0296H116.513C116.499 69.3969 115.902 67.8227 114.831 66.5905C113.76 65.3585 112.284 64.549 110.668 64.3082C109.053 64.0672 107.405 64.4104 106.02 65.2764C104.637 66.1422 103.606 67.4736 103.116 69.0311L102.938 69.0775L97.0014 70.6586Z" fill="white"/>
        <path opacity="0.35" d="M173.591 45.9812L177.051 46.8968C177.203 49.583 178.219 52.1483 179.949 54.2091C181.68 56.27 184.029 57.716 186.649 58.3311C189.268 58.9461 192.015 58.6973 194.481 57.622C196.948 56.5465 199.001 54.702 200.332 52.3641L200.866 52.0293C202.784 50.8249 204.145 48.9081 204.65 46.7002C205.156 44.4921 204.762 42.1741 203.559 40.2558C203.341 39.908 202.992 39.6609 202.593 39.5692C202.191 39.4772 201.772 39.548 201.423 39.7658L198.868 41.3791C198.398 40.23 197.682 39.1975 196.77 38.3541C196.47 38.0748 196.071 37.9264 195.659 37.9415C195.25 37.9566 194.863 38.1341 194.582 38.4348L187.367 46.2071H185.134C185.134 45.2355 184.787 44.2959 184.154 43.5596C183.519 42.8231 182.642 42.3391 181.682 42.1955C180.72 42.0521 179.74 42.2586 178.919 42.7777C178.096 43.2968 177.489 44.0938 177.207 45.0233L177.102 45.0515L173.591 45.9812Z" fill="white"/>
        <path d="M298.508 59.3345L252.855 108.515C247.382 114.41 244.475 122.238 244.775 130.277C245.073 138.316 248.554 145.907 254.449 151.379C260.345 156.852 268.173 159.759 276.212 159.46C284.25 159.161 291.841 155.681 297.314 149.785L314.367 131.415C318.955 126.472 322.524 120.675 324.871 114.353C327.218 108.032 328.297 101.309 328.047 94.5706C327.796 87.8318 326.22 81.2084 323.41 75.0786C320.599 68.9489 316.609 63.4326 311.666 58.8451C309.856 57.1655 307.453 56.2736 304.986 56.3653C302.518 56.4571 300.188 57.5251 298.508 59.3345Z" fill="#FFADBC"/>
        <path d="M351.757 94.7827L361.836 134.55L297.635 136.714L295.493 128.27L351.757 94.7827Z" fill="#5E93D1"/>
        <path d="M269.865 96.9108L247.053 91.0503L218.178 126.223C216.415 128.396 215.108 130.901 214.33 133.588C213.551 136.275 213.322 139.091 213.65 141.869L218.769 183.921L237.479 183.719L231.857 139.776L259.53 120.415C264.6 115.979 267.959 109.739 268.982 102.87L269.865 96.9108Z" fill="#211F5C"/>
        <path d="M268.716 56.71C260.976 52.9691 248.281 52.6766 242.701 53.9956C237.121 55.3145 231.45 77.611 231.45 77.611L218.67 95.7613L231.188 103.804L246.149 82.3442L240.208 77.0383C240.208 77.0383 245.637 85.4378 247.031 91.5464H272.832C272.832 91.5464 271.194 79.4462 270.737 72.5249" fill="#FF8FA2"/>
        <path d="M217.328 131.384C203.875 131.384 192.969 120.478 192.969 107.024C192.969 93.5706 203.875 82.6646 217.328 82.6646C230.781 82.6646 241.688 93.5706 241.688 107.024C241.688 120.478 230.781 131.384 217.328 131.384Z" fill="#9087E5"/>
        <path d="M192.969 107.024C192.969 148.423 226.528 181.985 267.927 181.985C309.325 181.985 342.887 148.423 342.887 107.024" fill="#9087E5"/>
        <path d="M242.374 63.9297L238.591 73.267L242.598 83.4997" stroke="#FFE0E6"/>
        <path d="M272.724 91.5H249.243L229.077 132.887C227.852 135.414 227.143 138.16 226.991 140.965C226.838 143.769 227.245 146.576 228.187 149.222L243.094 191.002H264.187L250.786 141.254L267.944 116.904C271.899 111.243 273.756 104.381 273.197 97.4976L272.724 91.5Z" fill="#211F5C"/>
        <path d="M234.245 96.4266H232.547C231.854 96.4123 231.162 96.4849 230.488 96.6424C229.229 96.9106 228.767 97.8241 226.656 97.927C224.27 98.046 225.984 100.121 227.134 100.347C228.031 100.516 229.112 100.071 229.836 100.627C229.635 101.152 229.596 102.303 226.912 104.57C225.375 105.867 222.677 106.224 223.282 109.434C224.123 111.889 227.949 112.034 229.001 111.602C232.077 110.342 234.509 107.77 235.777 105.683C236.354 104.679 236.85 103.631 237.264 102.549" fill="#FFCCD7"/>
        <path d="M239.293 85.9074L227.98 94.4602L239.057 106.292L264.885 88.6522C264.885 88.6522 273.758 67.2651 267.61 61.2554" fill="#FF8FA2"/>
        <path d="M239.831 41.5021C235.64 41.5021 232.242 37.1628 232.242 31.8099C232.242 26.457 235.64 22.1177 239.831 22.1177C244.022 22.1177 247.42 26.457 247.42 31.8099C247.42 37.1628 244.022 41.5021 239.831 41.5021Z" fill="#24272D"/>
        <path d="M251.286 58.668C250.157 58.6674 249.059 58.2985 248.159 57.6171C247.259 56.9356 246.605 55.9791 246.298 54.8927L241.481 37.892C241.275 37.2307 241.203 36.535 241.271 35.8457C241.338 35.1564 241.543 34.4876 241.873 33.8788C242.203 33.2697 242.651 32.7332 243.192 32.3004C243.733 31.8677 244.354 31.5476 245.021 31.359C245.687 31.1705 246.385 31.1173 247.072 31.2026C247.759 31.2879 248.422 31.51 249.023 31.8557C249.623 32.2015 250.147 32.6639 250.566 33.2157C250.984 33.7675 251.288 34.3975 251.459 35.0686L256.277 52.0714C256.495 52.843 256.532 53.6547 256.383 54.4428C256.235 55.2307 255.906 55.9737 255.423 56.6134C254.939 57.2531 254.314 57.772 253.596 58.1295C252.878 58.4871 252.088 58.6734 251.286 58.674V58.668Z" fill="#FFCCD7"/>
        <path d="M246.547 51.1175L245.642 51.3696C244.588 51.6606 243.483 51.7159 242.406 51.5315C241.329 51.347 240.305 50.9275 239.408 50.3028C238.512 49.678 237.763 48.8635 237.217 47.9166C236.671 46.97 236.34 45.9144 236.248 44.8254L235.79 39.4288C235.643 37.6873 236.113 35.9498 237.119 34.5205C238.124 33.0912 239.601 32.0616 241.29 31.6121C243.197 31.1072 245.226 31.3804 246.932 32.3716C248.637 33.3627 249.879 34.9908 250.385 36.8978L251.748 42.0444C252.249 43.9369 251.984 45.9505 251.011 47.649C250.037 49.3475 248.433 50.5938 246.547 51.1175Z" fill="#FFCCD7"/>
        <path d="M239.425 40.0498L238.142 44.8032L240.018 44.8374" stroke="#25282D"/>
        <path d="M241.688 41.8972C241.186 41.8972 240.779 41.49 240.779 40.9877C240.779 40.4853 241.186 40.0781 241.688 40.0781C242.19 40.0781 242.598 40.4853 242.598 40.9877C242.598 41.49 242.19 41.8972 241.688 41.8972Z" fill="#24272D"/>
        <path d="M237.313 41.8972C236.811 41.8972 236.404 41.49 236.404 40.9877C236.404 40.4853 236.811 40.0781 237.313 40.0781C237.815 40.0781 238.223 40.4853 238.223 40.9877C238.223 41.49 237.815 41.8972 237.313 41.8972Z" fill="#24272D"/>
        <path d="M241.948 46.6385C241.948 46.6385 243.066 46.576 243.525 45.606" stroke="#25282D"/>
        <path d="M283.993 45.848C285.001 57.6295 275.035 53.7998 275.035 53.7998C275.035 53.7998 281.401 66.7308 267.154 65.6519C252.906 64.573 249.017 54.4512 249.568 48.6633C249.788 46.3562 250.98 44.5694 252.345 42.8451C244.536 41.6452 244.655 36.2888 244.655 36.2888C244.655 36.2888 232.136 41.1531 232.237 31.5597C232.338 21.9663 242.213 18.8908 248.049 18.9916C249.279 19.0173 250.497 19.2288 251.663 19.6188C255.42 20.841 258.331 22.8334 263.316 22.9121C277.09 23.1299 278.413 36.1376 278.413 36.1376C278.413 36.1376 283.315 37.8739 283.993 45.848Z" fill="#24272D"/>
        <path d="M248.303 44.5301L248.301 44.5293C246.596 43.8106 245.797 41.8461 246.516 40.1414L247.7 37.3334C248.418 35.6287 250.383 34.8294 252.088 35.5482L252.089 35.549C253.794 36.2675 254.593 38.2322 253.875 39.9369L252.691 42.7448C251.972 44.4495 250.008 45.2487 248.303 44.5301Z" fill="#FFCCD7"/>
        <path d="M251.328 37.6641L249.646 41.645" stroke="#25282D"/>
        <path d="M172.281 105.701L193.393 111.324L196.62 112.181C197.471 112.181 198.314 112.014 199.101 111.689C199.887 111.363 200.601 110.886 201.202 110.284C201.805 109.682 202.281 108.968 202.606 108.181C202.932 107.395 203.098 106.552 203.098 105.701H172.281Z" fill="#FFADBC"/>
        <path d="M214.114 99.2215C212.622 99.2215 211.414 98.0125 211.414 96.5212C211.414 95.0298 212.622 93.8208 214.114 93.8208C215.604 93.8208 216.814 95.0298 216.814 96.5212C216.814 98.0125 215.604 99.2215 214.114 99.2215Z" fill="#FFADBC"/>
        <path d="M172.281 105.701H203.096C203.096 104.85 202.93 104.007 202.606 103.221C202.279 102.434 201.803 101.72 201.2 101.118C200.599 100.516 199.885 100.039 199.099 99.7134C198.312 99.3881 197.469 99.2209 196.618 99.2217L193.391 100.081L172.281 105.701Z" fill="#FFADBC"/>
        <path d="M234.373 89.6243L250.486 77.623L254.328 66.5332" stroke="#FFE0E6"/>
        <path d="M260.752 91.4775C260.752 91.4775 264.852 89.0857 265.913 85.9598C266.974 82.8339 271.156 69.1426 271.156 69.1426" stroke="#FFE0E6"/>
        <path d="M248.537 137.124L250.785 141.25L248.537 144.107" stroke="#FFE0E6"/>
        <path d="M339.625 68.2392L282.791 103.933C275.979 108.211 271.145 115.021 269.354 122.863C267.562 130.705 268.959 138.938 273.237 145.75C277.515 152.562 284.324 157.396 292.166 159.188C300.009 160.98 308.241 159.583 315.054 155.304L336.285 141.97C341.996 138.384 346.945 133.708 350.849 128.208C354.753 122.709 357.535 116.495 359.037 109.92C360.539 103.346 360.731 96.5395 359.602 89.8906C358.473 83.242 356.046 76.8805 352.459 71.1699C351.144 69.0806 349.055 67.5983 346.648 67.0487C344.242 66.4992 341.716 66.9273 339.625 68.2392Z" fill="#FFADBC"/>
        <path d="M324.461 77.6025L282.258 104.154C282.258 104.154 277.521 107.502 275.341 110.904" stroke="#FFE0E6"/>
    </g>
</svg>
