<svg width="20" height="20" viewBox="0 0 20 20" fill="none" xmlns="http://www.w3.org/2000/svg">
    <g clip-path="url(#clip0_2059_21623)">
        <path d="M10 12.5C11.3807 12.5 12.5 11.3807 12.5 10C12.5 8.61929 11.3807 7.5 10 7.5C8.61929 7.5 7.5 8.61929 7.5 10C7.5 11.3807 8.61929 12.5 10 12.5Z" stroke="#6A5AE0" stroke-width="2" stroke-linecap="round" stroke-linejoin="round"/>
        <path d="M10 17.5V17.5083" stroke="#6A5AE0" stroke-width="2" stroke-linecap="round" stroke-linejoin="round"/>
        <path d="M2.5 7.5V7.50833" stroke="#6A5AE0" stroke-width="2" stroke-linecap="round" stroke-linejoin="round"/>
        <path d="M17.5 7.5V7.50833" stroke="#6A5AE0" stroke-width="2" stroke-linecap="round" stroke-linejoin="round"/>
        <path d="M6.66667 16.7502C5.52945 16.1955 4.55105 15.3621 3.82253 14.3276C3.09401 13.2931 2.63905 12.0911 2.5 10.8335" stroke="#6A5AE0" stroke-width="2" stroke-linecap="round" stroke-linejoin="round"/>
        <path d="M13.334 16.7502C14.4712 16.1955 15.4496 15.3621 16.1781 14.3276C16.9066 13.2931 17.3616 12.0911 17.5007 10.8335" stroke="#6A5AE0" stroke-width="2" stroke-linecap="round" stroke-linejoin="round"/>
        <path d="M5.16602 4.16661C6.50609 3.06991 8.18438 2.4707 9.91602 2.4707C11.6477 2.4707 13.3259 3.06991 14.666 4.16661" stroke="#6A5AE0" stroke-width="2" stroke-linecap="round" stroke-linejoin="round"/>
    </g>
    <defs>
        <clipPath id="clip0_2059_21623">
            <rect width="20" height="20" fill="white"/>
        </clipPath>
    </defs>
</svg>
