<svg width="24" height="24" viewBox="0 0 24 24" fill="none" xmlns="http://www.w3.org/2000/svg">
    <path d="M12.8477 2.75173C12.6227 2.52677 12.3175 2.40039 11.9993 2.40039C11.6811 2.40039 11.3759 2.52677 11.1509 2.75173L2.75092 11.1517C2.53233 11.3781 2.41137 11.6812 2.41411 11.9958C2.41684 12.3105 2.54304 12.6114 2.76553 12.8339C2.98802 13.0564 3.289 13.1826 3.60363 13.1853C3.91827 13.1881 4.22139 13.0671 4.44772 12.8485L4.79932 12.4969V20.4001C4.79932 20.7184 4.92575 21.0236 5.15079 21.2487C5.37583 21.4737 5.68106 21.6001 5.99932 21.6001H8.39932C8.71758 21.6001 9.0228 21.4737 9.24784 21.2487C9.47289 21.0236 9.59932 20.7184 9.59932 20.4001V18.0001C9.59932 17.6819 9.72574 17.3766 9.95079 17.1516C10.1758 16.9266 10.4811 16.8001 10.7993 16.8001H13.1993C13.5176 16.8001 13.8228 16.9266 14.0478 17.1516C14.2729 17.3766 14.3993 17.6819 14.3993 18.0001V20.4001C14.3993 20.7184 14.5257 21.0236 14.7508 21.2487C14.9758 21.4737 15.2811 21.6001 15.5993 21.6001H17.9993C18.3176 21.6001 18.6228 21.4737 18.8478 21.2487C19.0729 21.0236 19.1993 20.7184 19.1993 20.4001V12.4969L19.5509 12.8485C19.7772 13.0671 20.0804 13.1881 20.395 13.1853C20.7096 13.1826 21.0106 13.0564 21.2331 12.8339C21.4556 12.6114 21.5818 12.3105 21.5845 11.9958C21.5873 11.6812 21.4663 11.3781 21.2477 11.1517L12.8477 2.75173Z" fill="#0C092A"/>
</svg>
