<svg width="20" height="20" viewBox="0 0 30 30" fill="none" xmlns="http://www.w3.org/2000/svg">
    <g clip-path="url(#clip0_2200_23941)">
        <path d="M9.00039 16.2002H7.80039C6.47491 16.2002 5.40039 17.2747 5.40039 18.6002V22.2002C5.40039 23.5257 6.47491 24.6002 7.80039 24.6002H9.00039C10.3259 24.6002 11.4004 23.5257 11.4004 22.2002V18.6002C11.4004 17.2747 10.3259 16.2002 9.00039 16.2002Z" fill="#6A5AE0" stroke="#6A5AE0" stroke-width="2" stroke-linecap="round" stroke-linejoin="round"/>
        <path d="M22.1996 16.2002H20.9996C19.6741 16.2002 18.5996 17.2747 18.5996 18.6002V22.2002C18.5996 23.5257 19.6741 24.6002 20.9996 24.6002H22.1996C23.5251 24.6002 24.5996 23.5257 24.5996 22.2002V18.6002C24.5996 17.2747 23.5251 16.2002 22.1996 16.2002Z" fill="#6A5AE0" stroke="#6A5AE0" stroke-width="2" stroke-linecap="round" stroke-linejoin="round"/>
        <path d="M5.40039 18.5999V14.9999C5.40039 12.4538 6.41182 10.012 8.21217 8.21168C10.0125 6.41133 12.4543 5.3999 15.0004 5.3999C17.5465 5.3999 19.9883 6.41133 21.7886 8.21168C23.589 10.012 24.6004 12.4538 24.6004 14.9999V18.5999" stroke="#6A5AE0" stroke-width="2" stroke-linecap="round" stroke-linejoin="round"/>
    </g>
    <defs>
        <clipPath id="clip0_2200_23941">
            <rect width="28.8" height="28.8" fill="white" transform="translate(0.599609 0.600098)"/>
        </clipPath>
    </defs>
</svg>
