<svg width="56" height="56" viewBox="0 0 56 56" fill="none" xmlns="http://www.w3.org/2000/svg">
    <circle cx="28" cy="28" r="28" fill="#FFD6DD"/>
    <mask id="mask0_146_33861" style="mask-type:alpha" maskUnits="userSpaceOnUse" x="0" y="0" width="56" height="56">
        <circle cx="28" cy="28" r="28" fill="#C4C4C4"/>
    </mask>
    <g mask="url(#mask0_146_33861)">
        <path fill-rule="evenodd" clip-rule="evenodd" d="M29.0002 14.4961C23.3769 14.4961 18.8184 19.0546 18.8184 24.6779V25.7142C17.7865 25.8874 17.0002 26.7848 17.0002 27.8659V30.3594C17.0002 31.4624 17.8186 32.3742 18.8813 32.5207C19.2787 36.0914 21.5226 39.1047 24.6365 40.5839V43.9311C16.9353 44.3456 10.8184 50.7215 10.8184 58.5262H47.182C47.182 50.7215 41.065 44.3456 33.3638 43.9311V40.5839C36.4777 39.1047 38.7217 36.0914 39.119 32.5207C40.1817 32.3742 41.0002 31.4624 41.0002 30.3594V27.8659C41.0002 26.7848 40.2139 25.8874 39.182 25.7142V24.6779C39.182 19.0546 34.6234 14.4961 29.0002 14.4961Z" fill="#D0C6AC"/>
        <mask id="mask1_146_33861" style="mask-type:luminance" maskUnits="userSpaceOnUse" x="10" y="14" width="38" height="45">
            <path fill-rule="evenodd" clip-rule="evenodd" d="M29.0002 14.4961C23.3769 14.4961 18.8184 19.0546 18.8184 24.6779V25.7142C17.7865 25.8874 17.0002 26.7848 17.0002 27.8659V30.3594C17.0002 31.4624 17.8186 32.3742 18.8813 32.5207C19.2787 36.0914 21.5226 39.1047 24.6365 40.5839V43.9311C16.9353 44.3456 10.8184 50.7215 10.8184 58.5262H47.182C47.182 50.7215 41.065 44.3456 33.3638 43.9311V40.5839C36.4777 39.1047 38.7217 36.0914 39.119 32.5207C40.1817 32.3742 41.0002 31.4624 41.0002 30.3594V27.8659C41.0002 26.7848 40.2139 25.8874 39.182 25.7142V24.6779C39.182 19.0546 34.6234 14.4961 29.0002 14.4961Z" fill="white"/>
        </mask>
        <g mask="url(#mask1_146_33861)">
            <rect x="5" y="14.4961" width="48" height="44.0301" fill="#FFBF75"/>
            <path fill-rule="evenodd" clip-rule="evenodd" d="M18.8184 31.3818V32.8254C18.8184 38.4487 23.3769 43.0073 29.0002 43.0073C34.6234 43.0073 39.182 38.4487 39.182 32.8254V31.3818C39.182 37.0051 34.6234 41.5637 29.0002 41.5637C23.3769 41.5637 18.8184 37.0051 18.8184 31.3818Z" fill="black" fill-opacity="0.1"/>
        </g>
        <path fill-rule="evenodd" clip-rule="evenodd" d="M24.6365 41.3286C21.4398 42.0822 19.1599 43.6381 18.8535 45.472C14.0869 47.8798 10.8184 52.8215 10.8184 58.5266H47.182C47.182 52.8215 43.9135 47.8798 39.1468 45.472C38.8405 43.6381 36.5606 42.0822 33.3638 41.3286V44.4186C33.3638 46.8286 31.4101 48.7822 29.0002 48.7822C26.5902 48.7822 24.6365 46.8286 24.6365 44.4186V41.3286Z" fill="#B7C1DB"/>
        <mask id="mask2_146_33861" style="mask-type:luminance" maskUnits="userSpaceOnUse" x="10" y="41" width="38" height="18">
            <path fill-rule="evenodd" clip-rule="evenodd" d="M24.6365 41.3286C21.4398 42.0822 19.1599 43.6381 18.8535 45.472C14.0869 47.8798 10.8184 52.8215 10.8184 58.5266H47.182C47.182 52.8215 43.9135 47.8798 39.1468 45.472C38.8405 43.6381 36.5606 42.0822 33.3638 41.3286V44.4186C33.3638 46.8286 31.4101 48.7822 29.0002 48.7822C26.5902 48.7822 24.6365 46.8286 24.6365 44.4186V41.3286Z" fill="white"/>
        </mask>
        <g mask="url(#mask2_146_33861)">
            <rect x="5" y="38.6768" width="48" height="19.8496" fill="#FF6990"/>
            <path fill-rule="evenodd" clip-rule="evenodd" d="M23.5462 50.106C23.0968 49.9541 22.6713 49.784 22.2734 49.5977V58.5264H23.5462V50.106ZM34.4553 50.106C34.9046 49.9541 35.3301 49.784 35.728 49.5977V56.4465C35.728 56.7979 35.4431 57.0828 35.0916 57.0828C34.7402 57.0828 34.4553 56.7979 34.4553 56.4465V50.106Z" fill="#F4F4F4"/>
            <path fill-rule="evenodd" clip-rule="evenodd" d="M28.9991 50.9472C34.6224 50.9472 39.1809 48.5235 39.1809 45.5337C39.1809 43.7539 37.5655 42.1747 35.0718 41.188C38.6707 42.0945 41.09 43.782 41.09 45.7141C41.09 48.6043 35.6767 50.9472 28.9991 50.9472ZM22.9265 41.188C20.4327 42.1747 18.8173 43.7539 18.8173 45.5337C18.8173 48.5235 23.3758 50.9472 28.9991 50.9472C22.3215 50.9472 16.9082 48.6043 16.9082 45.7141C16.9082 43.782 19.3275 42.0945 22.9265 41.188Z" fill="black" fill-opacity="0.16"/>
        </g>
        <path fill-rule="evenodd" clip-rule="evenodd" d="M26.4551 34.8867C26.4551 36.282 27.5947 37.413 29.0005 37.413C30.4063 37.413 31.546 36.282 31.546 34.8867" fill="#0C092A"/>
        <g opacity="0.3">
            <path fill-rule="evenodd" clip-rule="evenodd" d="M26.8184 31.459C26.8184 32.2563 27.7952 32.9026 29.0002 32.9026C30.2052 32.9026 31.182 32.2563 31.182 31.459" fill="#0C092A"/>
        </g>
        <ellipse cx="24.2725" cy="28.2101" rx="1.09091" ry="1.08271" fill="#0C092A"/>
        <ellipse cx="33.7276" cy="28.2101" rx="1.09091" ry="1.08271" fill="#0C092A"/>
        <path d="M21.6601 25.893C22.3719 24.899 24.3233 24.3415 26.0042 24.7512C26.1993 24.7988 26.3962 24.6804 26.4441 24.4868C26.492 24.2932 26.3727 24.0978 26.1777 24.0503C24.2255 23.5745 21.9659 24.2199 21.0673 25.4749C20.9509 25.6374 20.9893 25.8627 21.153 25.9781C21.3167 26.0936 21.5437 26.0555 21.6601 25.893Z" fill="#0C092A"/>
        <path d="M36.3399 25.893C35.6281 24.899 33.6767 24.3415 31.9958 24.7512C31.8008 24.7988 31.6038 24.6804 31.5559 24.4868C31.508 24.2932 31.6273 24.0978 31.8223 24.0503C33.7745 23.5745 36.0341 24.2199 36.9327 25.4749C37.0491 25.6374 37.0107 25.8627 36.847 25.9781C36.6833 26.0936 36.4563 26.0555 36.3399 25.893Z" fill="#0C092A"/>
        <mask id="mask3_146_33861" style="mask-type:luminance" maskUnits="userSpaceOnUse" x="5" y="8" width="48" height="51">
            <rect x="5" y="8" width="48" height="50.5263" fill="white"/>
        </mask>
        <g mask="url(#mask3_146_33861)">
            <path fill-rule="evenodd" clip-rule="evenodd" d="M24.1902 33.5661C24.486 33.3901 24.7733 33.2191 25.0703 33.1066C26.0139 32.7488 27.7648 32.8502 28.9997 33.4973C30.2346 32.8502 31.9856 32.7488 32.9292 33.1066C33.2261 33.2191 33.5134 33.3901 33.8092 33.5661C34.5592 34.0122 35.3639 34.491 36.52 34.1345C36.5871 34.1138 36.6526 34.1736 36.6325 34.2392C36.3828 35.053 34.9947 35.6104 34.5231 35.6286C33.3946 35.6722 32.3863 35.2206 31.4093 34.783C30.6014 34.4211 29.8149 34.0688 28.9997 34.0142C28.1845 34.0688 27.3981 34.4211 26.5901 34.783C25.6132 35.2206 24.6048 35.6722 23.4764 35.6286C23.0047 35.6104 21.6167 35.053 21.367 34.2392C21.3468 34.1736 21.4124 34.1138 21.4794 34.1345C22.6355 34.491 23.4403 34.0122 24.1902 33.5661Z" fill="#28354B"/>
            <mask id="mask4_146_33861" style="mask-type:luminance" maskUnits="userSpaceOnUse" x="21" y="32" width="16" height="4">
                <path fill-rule="evenodd" clip-rule="evenodd" d="M24.1902 33.5661C24.486 33.3901 24.7733 33.2191 25.0703 33.1066C26.0139 32.7488 27.7648 32.8502 28.9997 33.4973C30.2346 32.8502 31.9856 32.7488 32.9292 33.1066C33.2261 33.2191 33.5134 33.3901 33.8092 33.5661C34.5592 34.0122 35.3639 34.491 36.52 34.1345C36.5871 34.1138 36.6526 34.1736 36.6325 34.2392C36.3828 35.053 34.9947 35.6104 34.5231 35.6286C33.3946 35.6722 32.3863 35.2206 31.4093 34.783C30.6014 34.4211 29.8149 34.0688 28.9997 34.0142C28.1845 34.0688 27.3981 34.4211 26.5901 34.783C25.6132 35.2206 24.6048 35.6722 23.4764 35.6286C23.0047 35.6104 21.6167 35.053 21.367 34.2392C21.3468 34.1736 21.4124 34.1138 21.4794 34.1345C22.6355 34.491 23.4403 34.0122 24.1902 33.5661Z" fill="white"/>
            </mask>
            <g mask="url(#mask4_146_33861)">
                <rect x="13.7266" y="20.9927" width="30.5455" height="27.4286" fill="#0C092A"/>
            </g>
            <path fill-rule="evenodd" clip-rule="evenodd" d="M37.5734 15.2039C37.0717 14.695 36.4891 14.2631 35.9224 13.83C35.7974 13.7345 35.6703 13.6413 35.5481 13.5422C35.5203 13.5197 35.2356 13.3173 35.2016 13.2429C35.1196 13.0637 35.1671 13.2032 35.1784 12.9894C35.1927 12.7191 35.7481 11.9556 35.3337 11.7805C35.1513 11.7035 34.8261 11.9084 34.6512 11.9761C34.3091 12.1086 33.9628 12.2215 33.6092 12.319C33.7786 11.9839 34.1017 11.3132 33.4945 11.4927C33.0215 11.6326 32.5807 11.9921 32.1054 12.1613C32.2627 11.9054 32.8916 11.1126 32.3233 11.0683C32.1464 11.0545 31.6318 11.3837 31.4414 11.454C30.8711 11.6644 30.2886 11.8003 29.6898 11.9074C27.6538 12.2716 25.2729 12.1678 23.3892 13.0877C21.937 13.797 20.503 14.8974 19.6641 16.2987C18.8555 17.6494 18.553 19.1276 18.3838 20.6753C18.2596 21.8112 18.2495 22.9853 18.3076 24.1253C18.3266 24.4988 18.3689 26.2205 18.9156 25.6991C19.188 25.4393 19.186 24.3903 19.2546 24.0352C19.3911 23.3287 19.5225 22.619 19.7502 21.9351C20.1513 20.7299 20.6245 19.4462 21.6238 18.6161C22.2651 18.0835 22.7154 17.3636 23.3291 16.8263C23.6047 16.585 23.3944 16.6101 23.8376 16.6417C24.1353 16.663 24.4344 16.6711 24.7328 16.6789C25.423 16.6967 26.1142 16.6921 26.8046 16.6945C28.1949 16.6995 29.5788 16.719 30.9677 16.6468C31.585 16.6147 32.204 16.5973 32.8196 16.5406C33.1635 16.509 33.7737 16.2902 34.0568 16.4574C34.3159 16.6103 34.5849 17.1097 34.7709 17.3142C35.2104 17.7975 35.7345 18.1667 36.2484 18.563C37.3201 19.3894 37.8611 20.4273 38.1866 21.7187C38.5109 23.0053 38.42 24.199 38.8213 25.4651C38.8919 25.6877 39.0787 26.0715 39.3089 25.7275C39.3517 25.6637 39.3406 25.3125 39.3406 25.1105C39.3406 24.2949 39.5487 23.6829 39.5461 22.862C39.5359 20.366 39.4546 17.1113 37.5734 15.2039Z" fill="#0C092A"/>
            <mask id="mask5_146_33861" style="mask-type:luminance" maskUnits="userSpaceOnUse" x="18" y="11" width="22" height="15">
                <path fill-rule="evenodd" clip-rule="evenodd" d="M37.5734 15.2039C37.0717 14.695 36.4891 14.2631 35.9224 13.83C35.7974 13.7345 35.6703 13.6413 35.5481 13.5422C35.5203 13.5197 35.2356 13.3173 35.2016 13.2429C35.1196 13.0637 35.1671 13.2032 35.1784 12.9894C35.1927 12.7191 35.7481 11.9556 35.3337 11.7805C35.1513 11.7035 34.8261 11.9084 34.6512 11.9761C34.3091 12.1086 33.9628 12.2215 33.6092 12.319C33.7786 11.9839 34.1017 11.3132 33.4945 11.4927C33.0215 11.6326 32.5807 11.9921 32.1054 12.1613C32.2627 11.9054 32.8916 11.1126 32.3233 11.0683C32.1464 11.0545 31.6318 11.3837 31.4414 11.454C30.8711 11.6644 30.2886 11.8003 29.6898 11.9074C27.6538 12.2716 25.2729 12.1678 23.3892 13.0877C21.937 13.797 20.503 14.8974 19.6641 16.2987C18.8555 17.6494 18.553 19.1276 18.3838 20.6753C18.2596 21.8112 18.2495 22.9853 18.3076 24.1253C18.3266 24.4988 18.3689 26.2205 18.9156 25.6991C19.188 25.4393 19.186 24.3903 19.2546 24.0352C19.3911 23.3287 19.5225 22.619 19.7502 21.9351C20.1513 20.7299 20.6245 19.4462 21.6238 18.6161C22.2651 18.0835 22.7154 17.3636 23.3291 16.8263C23.6047 16.585 23.3944 16.6101 23.8376 16.6417C24.1353 16.663 24.4344 16.6711 24.7328 16.6789C25.423 16.6967 26.1142 16.6921 26.8046 16.6945C28.1949 16.6995 29.5788 16.719 30.9677 16.6468C31.585 16.6147 32.204 16.5973 32.8196 16.5406C33.1635 16.509 33.7737 16.2902 34.0568 16.4574C34.3159 16.6103 34.5849 17.1097 34.7709 17.3142C35.2104 17.7975 35.7345 18.1667 36.2484 18.563C37.3201 19.3894 37.8611 20.4273 38.1866 21.7187C38.5109 23.0053 38.42 24.199 38.8213 25.4651C38.8919 25.6877 39.0787 26.0715 39.3089 25.7275C39.3517 25.6637 39.3406 25.3125 39.3406 25.1105C39.3406 24.2949 39.5487 23.6829 39.5461 22.862C39.5359 20.366 39.4546 17.1113 37.5734 15.2039Z" fill="white"/>
            </mask>
            <g mask="url(#mask5_146_33861)">
                <rect x="5" y="8" width="48" height="50.5263" fill="#0C092A"/>
            </g>
        </g>
    </g>
</svg>
