<svg width="48" height="48" viewBox="0 0 48 48" fill="none" xmlns="http://www.w3.org/2000/svg">
    <path d="M47.8897 26.2817C47.5544 29.7671 46.4606 33.1369 44.6848 36.1549C42.9091 39.1727 40.4944 41.7654 37.6105 43.7511C34.7264 45.7368 31.4429 47.0674 27.99 47.6496C24.5372 48.2318 20.9989 48.0513 17.6233 47.1209C14.2475 46.1906 11.1164 44.5328 8.44925 42.2641C5.78222 39.9952 3.64389 37.1703 2.1844 33.9875C0.724814 30.8047 -0.0206128 27.3411 0.000433566 23.8396C0.02148 20.3381 0.808393 16.8836 2.30603 13.7186C6.51126 4.84671 15.9396 -0.876298 26.2777 0.110252C39.4732 1.36899 49.1494 13.0872 47.8897 26.2817Z" fill="#C4D0FB"/>
    <path d="M39.3862 42.4187L38.5525 43.0855C37.6892 43.7442 36.7825 44.3439 35.8387 44.8806C33.0433 46.4649 29.9582 47.472 26.7664 47.8422C23.5746 48.2124 20.3409 47.9381 17.2571 47.0355C14.1732 46.1329 11.302 44.6206 8.81339 42.5879C6.32486 40.5553 4.26959 38.0438 2.76953 35.2022C6.58014 32.4015 12.9598 29.0553 21.1204 29.7383C34.7702 30.8867 39.3862 42.4187 39.3862 42.4187Z" fill="#6A5AE0"/>
    <path d="M23.1231 35.4276C22.9695 35.428 22.8161 35.4189 22.6637 35.4003C21.6512 35.2797 20.7281 34.7619 20.0974 33.9607C19.4666 33.1596 19.1799 32.1408 19.3004 31.1283L21.1217 15.8079C21.2424 14.7952 21.7605 13.872 22.5619 13.2413C22.9588 12.9291 23.4132 12.6981 23.8993 12.5614C24.3855 12.4248 24.8937 12.3852 25.3952 12.445C25.8966 12.5048 26.3814 12.6628 26.8217 12.91C27.2621 13.1571 27.6494 13.4885 27.9617 13.8853C28.2739 14.2821 28.505 14.7367 28.6416 15.2227C28.7783 15.7088 28.8179 16.2172 28.7581 16.7186L26.9368 32.0389C26.8252 32.9724 26.3756 33.8324 25.6729 34.4568C24.9701 35.0812 24.0631 35.4266 23.1231 35.4276Z" fill="#FFCCD7"/>
    <path d="M26.3416 27.6013L27.1572 27.6924C28.1055 27.7994 29.0658 27.6959 29.9697 27.3896C30.8735 27.0832 31.6987 26.5814 32.3866 25.9197C33.0744 25.2582 33.6081 24.4532 33.9494 23.5618C34.2907 22.6706 34.4314 21.7151 34.3615 20.7633L34.0155 16.0481C33.9036 14.5252 33.2588 13.0904 32.1942 11.9957C31.1297 10.901 29.7134 10.2163 28.1943 10.062C26.4805 9.88815 24.768 10.4022 23.4332 11.491C22.0984 12.5799 21.2509 14.1543 21.077 15.868L20.6075 20.4911C20.4347 22.1925 20.9399 23.8933 22.0134 25.2245C23.087 26.5557 24.6422 27.4097 26.3416 27.6013Z" fill="#FFCCD7"/>
    <path d="M22.5644 22.5894L22.5652 22.5888C23.6885 21.8978 24.0389 20.427 23.3478 19.3036L22.6379 18.1497C21.9468 17.0265 20.476 16.6761 19.3528 17.3671L19.3518 17.3676C18.2286 18.0587 17.8782 19.5295 18.5693 20.6527L19.2792 21.8067C19.9703 22.93 21.441 23.2804 22.5644 22.5894Z" fill="#FFCCD7"/>
    <path d="M19.6211 19.2329L21.5355 21.2566" stroke="#001833" stroke-width="0.5" stroke-linecap="square"/>
    <path d="M31.0042 16.647L31.1388 20.4363L29.791 20.491" stroke="#001833" stroke-width="0.5" stroke-linecap="square"/>
    <path d="M26.9902 21.6676C26.8788 21.8735 26.809 22.0995 26.7849 22.3324C26.7608 22.5653 26.7827 22.8007 26.8496 23.0251C26.9164 23.2495 27.0269 23.4586 27.1745 23.6403C27.3221 23.8221 27.5042 23.973 27.7101 24.0844C27.9161 24.1958 28.1419 24.2656 28.3749 24.2897C28.6078 24.3138 28.8432 24.2918 29.0676 24.225C29.292 24.1582 29.5011 24.0477 29.6828 23.9001C29.8646 23.7524 30.0155 23.5705 30.1269 23.3645C30.5954 22.4973 29.6837 22.1017 28.8115 21.6332C27.9393 21.1647 27.4586 20.8015 26.9902 21.6676Z" fill="#001833"/>
    <path d="M23.0658 20.983L24.8871 14.1419L25.3191 12.5229C25.7251 12.958 26.2004 13.3229 26.7256 13.6026C28.6319 14.6286 34.3792 14.2198 35.1755 10.1896C35.8251 6.90312 32.3353 8.79224 30.5484 8.58684C27.7405 8.26304 25.7927 6.6107 21.9477 8.68802C17.3488 11.1762 19.5273 17.2756 19.5273 17.2756C19.5273 17.2756 21.551 16.4833 23.0658 20.983Z" fill="#001833"/>
    <path opacity="0.4" d="M27.3613 27.7123L24.9258 27.4907L27.1498 29.6611L27.3613 27.7123Z" fill="#24272D"/>
    <path d="M28.4091 18.6936C28.7784 18.6936 29.0779 18.3942 29.0779 18.0248C29.0779 17.6554 28.7784 17.356 28.4091 17.356C28.0396 17.356 27.7402 17.6554 27.7402 18.0248C27.7402 18.3942 28.0396 18.6936 28.4091 18.6936Z" fill="#001833"/>
    <path d="M32.3993 18.6936C32.7687 18.6936 33.0681 18.3942 33.0681 18.0248C33.0681 17.6554 32.7687 17.356 32.3993 17.356C32.0299 17.356 31.7305 17.6554 31.7305 18.0248C31.7305 18.3942 32.0299 18.6936 32.3993 18.6936Z" fill="#001833"/>
</svg>
