<svg width="312" height="230" viewBox="0 0 312 230" fill="none" xmlns="http://www.w3.org/2000/svg">
    <path d="M223.169 13.5273H175.129V81.4682H223.169V13.5273Z" fill="#B9B2F0"/>
    <path d="M198.304 62.8687C200.549 62.8687 202.368 61.053 202.368 58.8132C202.368 56.5735 200.549 54.7578 198.304 54.7578C196.06 54.7578 194.24 56.5735 194.24 58.8132C194.24 61.053 196.06 62.8687 198.304 62.8687Z" fill="white"/>
    <path d="M196.982 47.448C197.757 46.1162 198.678 44.8749 199.729 43.7476C200.501 42.9309 201.194 42.0429 201.798 41.0957C202.25 40.3192 202.479 39.4333 202.46 38.5355C202.46 37.2001 202.024 36.1187 201.152 35.2911C200.28 34.4636 199.114 34.0491 197.654 34.0475C194.886 34.0475 192.797 35.274 191.387 37.7267L187.662 34.7222C188.678 32.9317 190.15 31.4407 191.929 30.4011C193.672 29.3979 195.722 28.8965 198.08 28.8965C200.951 28.8965 203.239 29.6683 204.943 31.2122C206.647 32.7561 207.498 34.8837 207.497 37.5951C207.519 38.7593 207.344 39.9188 206.981 41.0252C206.683 41.915 206.263 42.7592 205.732 43.5337C205.133 44.3502 204.491 45.1349 203.81 45.8846C202.987 46.7618 202.259 47.7224 201.637 48.7505C201.144 49.6568 200.901 50.6771 200.931 51.708H196.04C196.04 49.9995 196.354 48.5796 196.982 47.448Z" fill="white"/>
    <path d="M175.098 48.5172L166.059 48.9004C166.059 48.9004 169.828 30.3277 175.098 28.3105L175.143 38.6008C176.957 37.0891 178.894 35.7232 179.584 36.0993C180.873 36.7905 175.098 48.5172 175.098 48.5172Z" fill="#FFCCD7"/>
    <path d="M212.194 212.942L211.902 230.008L252.036 219.671L231.452 214.266L212.194 212.942Z" fill="#0D0B6D"/>
    <path d="M242.085 99.5895L255.45 100.572L248.128 63.7207L239.75 87.3527L242.085 99.5895Z" fill="#0D0B6D"/>
    <path d="M165.031 151.466C165.425 151.09 169.816 126.024 172.603 109.915C173.29 105.948 175.1 102.26 177.819 99.2859C180.538 96.3117 184.052 94.1754 187.947 93.1289L238.393 79.585L246.511 104.759L201.277 120.095L198.523 152.503" fill="#09074A"/>
    <path d="M130.674 154.819L132.507 158.992C134.386 163.264 137.553 166.844 141.568 169.235C145.583 171.626 150.245 172.707 154.905 172.329L186.926 169.721L206.787 220.646C206.787 220.646 236.653 213.269 235.784 212.112C235.176 211.301 221.445 173.901 213.247 151.492C211.536 146.814 208.276 142.857 204.009 140.275C199.74 137.694 194.717 136.642 189.77 137.292L144.352 143.261" fill="#09074A"/>
    <path d="M133.777 167.834L161.699 156.264L156.033 138.907L125.453 146.282L133.777 167.834Z" fill="#3361C2"/>
    <path d="M127.628 128.962L131.854 143.677L155.465 137.167L161.699 156.264L124.874 171.517C123.236 172.197 121.467 172.508 119.695 172.428C117.922 172.347 116.189 171.877 114.62 171.052C113.05 170.226 111.683 169.065 110.615 167.651C109.547 166.237 108.804 164.606 108.441 162.873C104.509 143.973 101.795 111.48 127.404 105.932C134.151 104.47 151.559 76.6931 151.559 76.6931L156.153 49.6569L176.179 47.6162L173.823 80.8167C173.568 84.3655 172.327 87.7728 170.237 90.6555L153.427 113.839L168.505 139.342L129.8 161.328" fill="#9087E5"/>
    <mask id="mask0_146_34790" style="mask-type:luminance" maskUnits="userSpaceOnUse" x="105" y="47" width="72" height="126">
        <path fill-rule="evenodd" clip-rule="evenodd" d="M127.628 128.962L131.854 143.677L155.465 137.167L161.699 156.264L124.874 171.517C123.236 172.197 121.467 172.508 119.695 172.428C117.922 172.347 116.189 171.877 114.62 171.052C113.05 170.226 111.683 169.065 110.615 167.651C109.547 166.237 108.804 164.606 108.441 162.873C104.509 143.973 101.795 111.48 127.404 105.932C134.151 104.47 151.559 76.6931 151.559 76.6931L156.153 49.6569L176.179 47.6162L173.823 80.8167C173.568 84.3655 172.327 87.7728 170.237 90.6555L153.427 113.839L168.505 139.342L129.8 161.328" fill="white"/>
    </mask>
    <g mask="url(#mask0_146_34790)">
        <path d="M167.069 150.652C170.244 150.652 172.817 148.084 172.817 144.916C172.817 141.748 170.244 139.18 167.069 139.18C163.894 139.18 161.32 141.748 161.32 144.916C161.32 148.084 163.894 150.652 167.069 150.652Z" fill="#EFEFEF"/>
        <path d="M179.94 135.632C183.115 135.632 185.688 133.064 185.688 129.896C185.688 126.727 183.115 124.159 179.94 124.159C176.765 124.159 174.191 126.727 174.191 129.896C174.191 133.064 176.765 135.632 179.94 135.632Z" fill="#EFEFEF"/>
        <path d="M177.282 167.544C180.456 167.544 183.03 164.976 183.03 161.808C183.03 158.639 180.456 156.071 177.282 156.071C174.107 156.071 171.533 158.639 171.533 161.808C171.533 164.976 174.107 167.544 177.282 167.544Z" fill="#EFEFEF"/>
        <path d="M126.077 83.0714C129.251 83.0714 131.825 80.5032 131.825 77.335C131.825 74.1668 129.251 71.5986 126.077 71.5986C122.902 71.5986 120.328 74.1668 120.328 77.335C120.328 80.5032 122.902 83.0714 126.077 83.0714Z" fill="#EFEFEF"/>
        <path d="M102.94 81.1944C106.115 81.1944 108.688 78.6262 108.688 75.4581C108.688 72.2899 106.115 69.7217 102.94 69.7217C99.765 69.7217 97.1914 72.2899 97.1914 75.4581C97.1914 78.6262 99.765 81.1944 102.94 81.1944Z" fill="#EFEFEF"/>
        <path d="M136.289 99.963C139.464 99.963 142.038 97.3948 142.038 94.2266C142.038 91.0584 139.464 88.4902 136.289 88.4902C133.115 88.4902 130.541 91.0584 130.541 94.2266C130.541 97.3948 133.115 99.963 136.289 99.963Z" fill="#EFEFEF"/>
        <path d="M113.153 98.087C116.328 98.087 118.901 95.5188 118.901 92.3506C118.901 89.1825 116.328 86.6143 113.153 86.6143C109.978 86.6143 107.404 89.1825 107.404 92.3506C107.404 95.5188 109.978 98.087 113.153 98.087Z" fill="#EFEFEF"/>
        <path d="M138.973 68.0548C142.148 68.0548 144.722 65.4866 144.722 62.3184C144.722 59.1502 142.148 56.582 138.973 56.582C135.798 56.582 133.225 59.1502 133.225 62.3184C133.225 65.4866 135.798 68.0548 138.973 68.0548Z" fill="#EFEFEF"/>
        <path d="M115.836 66.1769C119.011 66.1769 121.585 63.6087 121.585 60.4405C121.585 57.2723 119.011 54.7041 115.836 54.7041C112.662 54.7041 110.088 57.2723 110.088 60.4405C110.088 63.6087 112.662 66.1769 115.836 66.1769Z" fill="#EFEFEF"/>
        <path d="M169.723 118.74C172.898 118.74 175.472 116.172 175.472 113.004C175.472 109.836 172.898 107.268 169.723 107.268C166.548 107.268 163.975 109.836 163.975 113.004C163.975 116.172 166.548 118.74 169.723 118.74Z" fill="#EFEFEF"/>
        <path d="M100.311 113.108C103.486 113.108 106.059 110.539 106.059 107.371C106.059 104.203 103.486 101.635 100.311 101.635C97.1361 101.635 94.5625 104.203 94.5625 107.371C94.5625 110.539 97.1361 113.108 100.311 113.108Z" fill="#EFEFEF"/>
    </g>
    <path fill-rule="evenodd" clip-rule="evenodd" d="M127.514 108.382L130.129 86.1562L127.514 108.382Z" fill="#FFCCD7"/>
    <path d="M127.514 108.382L130.129 86.1562" stroke="#FFCCD7" stroke-width="12" stroke-linecap="round"/>
    <path d="M190.616 169.968L186.236 169.505L187.676 164.004" stroke="#6A5AE0" stroke-linecap="square"/>
    <path d="M126.041 145.422L129.98 144.441" stroke="#6A5AE0" stroke-linecap="square"/>
    <path d="M158.909 147.963C158.909 147.932 167.117 140.463 167.117 140.463L176.835 138.427C176.835 138.427 168.856 130.756 156.574 140.593" fill="#FFCCD7"/>
    <path d="M201.568 115.571L202.194 120.635L195.689 120.539" stroke="#6A5AE0" stroke-linecap="square"/>
    <path d="M126.418 128.958L129.952 144.51L155.464 137.168L159.05 148.151L167.34 140.038L189.993 137.062C189.993 137.062 196.554 136.03 199.768 138.089" stroke="#6A5AE0" stroke-linecap="square"/>
    <path d="M105.926 59.3984H0.1875V111.661H105.926V59.3984Z" fill="#9087E5"/>
    <path d="M312 114.396H218.09V155.393H312V114.396Z" fill="#9087E5"/>
    <path d="M187.794 172.446H70.6504V221.006H187.794V172.446Z" fill="#9087E5"/>
    <path d="M106.999 208.129H81.5781L94.2884 186.815L106.999 208.129Z" fill="#ECF6FF"/>
    <path d="M141.932 208.129H116.514L129.222 186.815L141.932 208.129Z" fill="#ECF6FF"/>
    <path d="M176.865 208.129H151.447L164.155 186.815L176.865 208.129Z" fill="#ECF6FF"/>
    <path d="M248.826 148.128C250.527 148.128 251.907 146.751 251.907 145.053C251.907 143.354 250.527 141.978 248.826 141.978C247.125 141.978 245.744 143.354 245.744 145.053C245.744 146.751 247.125 148.128 248.826 148.128Z" fill="#ECF6FF"/>
    <path d="M250.962 122.808H246.686V139.735H250.962V122.808Z" fill="#ECF6FF"/>
    <path d="M263.865 148.128C265.566 148.128 266.946 146.751 266.946 145.053C266.946 143.354 265.566 141.978 263.865 141.978C262.164 141.978 260.783 143.354 260.783 145.053C260.783 146.751 262.164 148.128 263.865 148.128Z" fill="#ECF6FF"/>
    <path d="M266.005 122.808H261.729V139.735H266.005V122.808Z" fill="#ECF6FF"/>
    <path d="M278.908 148.128C280.609 148.128 281.989 146.751 281.989 145.053C281.989 143.354 280.609 141.978 278.908 141.978C277.207 141.978 275.826 143.354 275.826 145.053C275.826 146.751 277.207 148.128 278.908 148.128Z" fill="#ECF6FF"/>
    <path d="M281.046 122.808H276.77V139.735H281.046V122.808Z" fill="#ECF6FF"/>
    <path d="M33.2144 102.228C35.4589 102.228 37.2784 100.412 37.2784 98.1726C37.2784 95.9328 35.4589 94.1172 33.2144 94.1172C30.9699 94.1172 29.1504 95.9328 29.1504 98.1726C29.1504 100.412 30.9699 102.228 33.2144 102.228Z" fill="#ECF6FF"/>
    <path d="M36.037 68.8281H30.3945V91.1577H36.037V68.8281Z" fill="#ECF6FF"/>
    <path d="M53.0562 102.228C55.3007 102.228 57.1201 100.412 57.1201 98.1726C57.1201 95.9328 55.3007 94.1172 53.0562 94.1172C50.8117 94.1172 48.9922 95.9328 48.9922 98.1726C48.9922 100.412 50.8117 102.228 53.0562 102.228Z" fill="#ECF6FF"/>
    <path d="M72.9019 102.228C75.1464 102.228 76.9659 100.412 76.9659 98.1726C76.9659 95.9328 75.1464 94.1172 72.9019 94.1172C70.6574 94.1172 68.8379 95.9328 68.8379 98.1726C68.8379 100.412 70.6574 102.228 72.9019 102.228Z" fill="#ECF6FF"/>
    <path d="M75.7206 68.8281H70.0781V91.1577H75.7206V68.8281Z" fill="#ECF6FF"/>
    <path d="M299.689 119.519L306.665 126.48" stroke="#ECF6FF" stroke-width="5"/>
    <path d="M306.665 119.519L299.689 126.48" stroke="#ECF6FF" stroke-width="5"/>
    <path d="M76.5332 178.286L83.9403 185.68" stroke="#ECF6FF" stroke-width="5"/>
    <path d="M83.9403 178.286L76.5332 185.68" stroke="#ECF6FF" stroke-width="5"/>
    <path d="M5.81836 99.4941L13.2254 106.888" stroke="#ECF6FF" stroke-width="5"/>
    <path d="M13.2254 99.4941L5.81836 106.888" stroke="#ECF6FF" stroke-width="5"/>
    <path d="M97.377 63.917L101.698 68.2287" stroke="#ECF6FF" stroke-width="5"/>
    <path d="M101.698 63.917L97.377 68.2287" stroke="#ECF6FF" stroke-width="5"/>
    <path d="M212.426 71.3779L217.543 76.4842" stroke="white"/>
    <path d="M217.543 71.3779L212.426 76.4842" stroke="white"/>
    <path d="M51.7361 86.8084C52.5105 85.4766 53.4319 84.2352 54.4831 83.1079C55.2549 82.2912 55.9475 81.4033 56.5516 80.456C57.0039 79.6795 57.2329 78.7937 57.2136 77.8958C57.2136 76.5605 56.7778 75.479 55.9061 74.6515C55.0344 73.8239 53.8682 73.4095 52.4075 73.4078C49.64 73.4078 47.551 74.6343 46.1407 77.0871L42.416 74.0826C43.4314 72.2921 44.9034 70.8011 46.6826 69.7615C48.426 68.7583 50.4764 68.2568 52.8339 68.2568C55.7049 68.2568 57.9925 69.0287 59.6968 70.5725C61.4008 72.1164 62.252 74.2441 62.2506 76.9554C62.2725 78.1196 62.0982 79.2792 61.7346 80.3855C61.4371 81.2754 61.0168 82.1196 60.486 82.894C59.8867 83.7105 59.2449 84.4953 58.5636 85.245C57.7413 86.1221 57.0134 87.0827 56.3914 88.1108C55.8983 89.0171 55.6545 90.0374 55.6846 91.0684H50.7937C50.7937 89.3599 51.1078 87.9399 51.7361 86.8084Z" fill="#ECF6FF"/>
    <path d="M131.182 106.822L132.513 106.805C139.11 106.732 143.984 100.316 142.684 93.4516L141.171 85.4582C140.163 80.1356 135.708 76.3412 130.605 76.4587C124.798 76.5904 120.204 81.7014 120.345 87.8727L120.529 95.866C120.668 101.995 125.42 106.873 131.182 106.822Z" fill="#FFCCD7"/>
    <path d="M135.378 89.5771L136.962 95.9107L134.707 96.4843" stroke="#0C092A"/>
    <path d="M124.842 96.1876L126.491 84.1153L126.885 81.2495C127.672 81.9063 128.562 82.4282 129.521 82.7941C133.003 84.1412 142.754 82.2181 143.256 75.1651C143.666 69.4123 138.096 73.3831 134.994 73.4113C130.119 73.4583 126.427 71.0603 120.295 75.4167C112.952 80.6453 117.981 90.5993 117.981 90.5993C117.981 90.5993 121.289 88.829 124.842 96.1876Z" fill="#001833"/>
    <path d="M130.674 92.0786C131.31 92.0786 131.826 91.5639 131.826 90.9289C131.826 90.2939 131.31 89.7793 130.674 89.7793C130.037 89.7793 129.521 90.2939 129.521 90.9289C129.521 91.5639 130.037 92.0786 130.674 92.0786Z" fill="#0C092A"/>
    <path d="M137.761 91.3217C138.398 91.3217 138.913 90.8071 138.913 90.1721C138.913 89.5371 138.398 89.0225 137.761 89.0225C137.125 89.0225 136.609 89.5371 136.609 90.1721C136.609 90.8071 137.125 91.3217 137.761 91.3217Z" fill="#0C092A"/>
    <path d="M132.591 98.7857C132.591 98.7857 132.258 96.4135 129.57 96.2725" stroke="#0C092A"/>
    <path d="M119.761 99.5617C121.184 101.334 123.777 101.619 125.552 100.199C127.328 98.7797 127.613 96.1922 126.19 94.4201L123.696 91.3142C122.273 89.5423 119.68 89.2566 117.904 90.6764C116.129 92.0964 115.844 94.6836 117.267 96.4558L119.761 99.5617Z" fill="#FFCCD7"/>
    <path d="M118.807 93.2256L122.517 96.2748" stroke="#0C092A"/>
    <path opacity="0.4" d="M133.55 107L130.756 107.648L133.339 109.402L133.55 107Z" fill="#0C092A"/>
    <path d="M166.408 135.775C166.408 135.775 172.788 134.085 176.836 138.423" stroke="#6A5AE0" stroke-linecap="square"/>
</svg>
