<svg width="318" height="264" viewBox="0 0 318 264" fill="none" xmlns="http://www.w3.org/2000/svg">
    <path d="M154.604 139.673C154.522 140.547 154.261 141.395 153.838 142.162C153.415 142.929 152.838 143.6 152.144 144.131C150.88 145.105 149.296 145.561 147.712 145.407C146.468 145.287 145.287 144.798 144.319 144.002C143.35 143.206 142.638 142.139 142.272 140.935C141.905 139.732 141.902 138.445 142.261 137.239C142.62 136.034 143.326 134.962 144.29 134.16C145.253 133.359 146.431 132.863 147.675 132.736C148.918 132.609 150.171 132.856 151.275 133.446C152.379 134.036 153.284 134.942 153.877 136.051C154.469 137.159 154.722 138.42 154.604 139.673Z" fill="#7C72E5"/>
    <path d="M159.555 243.798L73.4956 179.046" stroke="#C4D0FB" stroke-width="4"/>
    <path fill-rule="evenodd" clip-rule="evenodd" d="M140.486 69.9248L232.384 125.567L140.486 69.9248Z" fill="#C4D0FB"/>
    <path d="M140.486 69.9248L232.384 125.567" stroke="#C4D0FB" stroke-width="4"/>
    <path d="M161.85 239.721L256.16 177.711" stroke="#C4D0FB" stroke-width="4"/>
    <path d="M88.3863 92.6973L57.6113 150.707" stroke="#C4D0FB" stroke-width="4"/>
    <path fill-rule="evenodd" clip-rule="evenodd" d="M303.83 69.9248L286.383 113.418L303.83 69.9248Z" fill="#C4D0FB"/>
    <path d="M303.83 69.9248L286.383 113.418" stroke="#C4D0FB" stroke-width="4"/>
    <path fill-rule="evenodd" clip-rule="evenodd" d="M235.977 25.0889L302.869 65.7429L235.977 25.0889Z" fill="#70D6F5"/>
    <path d="M235.977 25.0889L302.869 65.7429" stroke="#C4D0FB" stroke-width="4"/>
    <path d="M24.1543 23.0078L88.1367 45.0211" stroke="#C4D0FB" stroke-width="4"/>
    <path d="M310.819 150.913C310.165 157.746 308.035 164.351 304.577 170.266C301.121 176.181 296.422 181.262 290.81 185.154C285.198 189.045 278.808 191.653 272.089 192.794C265.372 193.934 258.488 193.581 251.919 191.757C245.352 189.933 239.259 186.684 234.068 182.237C228.88 177.79 224.717 172.253 221.875 166.015C219.036 159.776 217.582 152.987 217.622 146.123C217.661 139.259 219.189 132.487 222.102 126.281C230.286 108.89 248.636 97.6656 268.753 99.5999C294.439 102.068 313.275 125.043 310.819 150.913Z" fill="#C4D0FB"/>
    <path d="M38.8542 24.5494C38.5957 27.2781 37.4703 29.85 35.6451 31.8827C33.8199 33.9156 31.3923 35.3007 28.723 35.8324C26.054 36.3641 23.286 36.014 20.8302 34.8339C18.3744 33.6541 16.3619 31.7073 15.0922 29.283C14.8185 28.7628 14.5816 28.2238 14.3833 27.6701C13.7392 25.8744 13.5041 23.9558 13.6955 22.0562C13.8869 20.1567 14.4997 18.3247 15.4888 16.696C16.4779 15.0674 17.8177 13.6836 19.4094 12.6471C21.0009 11.6106 22.8035 10.948 24.6837 10.7082C26.5638 10.4685 28.4735 10.6577 30.2712 11.2619C32.0691 11.8662 33.7088 12.87 35.0695 14.199C36.4302 15.528 37.4768 17.1483 38.132 18.9399C38.7871 20.7316 39.0338 22.6487 38.8542 24.5494Z" fill="#C4D0FB"/>
    <path d="M172.711 242.951C172.482 245.386 171.575 247.707 170.098 249.646C168.618 251.586 166.625 253.065 164.35 253.913C162.072 254.764 159.605 254.948 157.229 254.448C154.852 253.948 152.663 252.783 150.916 251.086C149.492 249.704 148.401 248.013 147.727 246.139C147.07 244.306 146.829 242.348 147.026 240.407C147.221 238.469 147.846 236.598 148.855 234.936C149.864 233.273 151.234 231.86 152.858 230.802C154.482 229.743 156.322 229.067 158.242 228.822C160.162 228.577 162.112 228.77 163.948 229.387C165.783 230.003 167.456 231.028 168.845 232.385C170.234 233.741 171.304 235.395 171.973 237.224C172.643 239.054 172.894 241.011 172.711 242.951Z" fill="#C4D0FB"/>
    <path d="M317.397 67.365C317.139 70.0938 316.012 72.6659 314.189 74.699C312.363 76.7319 309.935 78.1175 307.267 78.6494C304.597 79.1815 301.828 78.8313 299.373 77.6515C296.917 76.4717 294.905 74.5249 293.634 72.1005C293.361 71.58 293.124 71.0409 292.924 70.4876C292.278 68.6916 292.043 66.7724 292.234 64.8722C292.425 62.972 293.038 61.1393 294.026 59.5099C295.015 57.8805 296.356 56.496 297.947 55.459C299.54 54.4218 301.342 53.7588 303.222 53.5189C305.105 53.2789 307.015 53.4682 308.813 54.0727C310.611 54.6769 312.251 55.6812 313.612 57.0108C314.972 58.3404 316.02 59.9613 316.676 61.7535C317.33 63.546 317.576 65.4636 317.397 67.365Z" fill="#C4D0FB"/>
    <path d="M244.967 23.6221C244.803 25.3703 244.282 27.0653 243.433 28.5999C242.586 30.1346 241.432 31.4753 240.044 32.5377C239.589 32.8881 239.113 33.2063 238.614 33.49C236.245 34.8462 233.504 35.3939 230.801 35.0513C228.097 34.7089 225.574 33.4943 223.613 31.5894C222.219 30.2362 221.15 28.5788 220.49 26.7447C219.846 24.9491 219.612 23.0306 219.803 21.131C219.994 19.2315 220.606 17.3996 221.595 15.7709C222.583 14.1422 223.924 12.7583 225.515 11.7218C227.106 10.6853 228.91 10.0225 230.789 9.78258C232.669 9.54267 234.579 9.73173 236.377 10.3358C238.175 10.9399 239.814 11.9435 241.176 13.2723C242.537 14.6012 243.583 16.2213 244.238 18.0128C244.894 19.8043 245.14 21.7213 244.961 23.6221H244.967Z" fill="#C4D0FB"/>
    <path d="M218.95 122.401L220.153 120.197C220.659 119.097 221.108 117.971 221.5 116.824C222.106 115.025 221.893 112.46 224.55 110.037C227.206 107.615 223.278 108.284 221.951 109.4C220.844 110.331 219.944 112.971 218.843 113.567C218.591 113.208 218.392 112.815 218.252 112.4L215.846 101.04C215.811 100.858 215.712 100.695 215.568 100.581C215.423 100.466 215.242 100.408 215.058 100.417L214.617 100.431C214.511 100.437 214.407 100.465 214.31 100.514C214.216 100.563 214.131 100.631 214.064 100.715C213.995 100.798 213.946 100.895 213.918 100.999C213.889 101.103 213.883 101.212 213.899 101.318C214.269 103.748 215.555 110.98 215.425 110.984L215.159 111.111L211.469 99.604C211.417 99.4222 211.301 99.2661 211.144 99.1649C210.984 99.0639 210.795 99.0253 210.61 99.0564L210.019 99.1556C209.917 99.1719 209.818 99.209 209.732 99.2649C209.643 99.3207 209.568 99.3939 209.509 99.4802C209.452 99.5663 209.411 99.6637 209.391 99.7662C209.371 99.8686 209.373 99.9742 209.395 100.076C209.962 102.723 212.615 111.529 212.481 111.537L212.156 111.648L208.153 102.125C208.097 101.936 207.971 101.775 207.8 101.676C207.631 101.577 207.43 101.548 207.239 101.594L206.768 101.711C206.67 101.735 206.577 101.779 206.496 101.839C206.416 101.899 206.347 101.975 206.294 102.061C206.242 102.149 206.207 102.245 206.191 102.346C206.176 102.446 206.181 102.548 206.205 102.647L209.807 112.015L209.476 112.226L205.703 105.458C205.63 105.284 205.496 105.143 205.327 105.061C205.159 104.979 204.966 104.962 204.785 105.014L204.561 105.082C204.368 105.138 204.206 105.268 204.108 105.444C204.009 105.62 203.982 105.827 204.033 106.022C204.395 107.411 206.199 110.325 207.249 113.362C208.07 115.715 208.127 117.6 209.482 120.449C210.053 121.657 211.14 123.091 211.733 123.891" fill="#FFCCD7"/>
    <path d="M287.367 187.38C278.61 192.382 268.482 194.401 258.493 193.134C248.505 191.868 239.189 187.385 231.934 180.353L232.497 165.805L214.42 162.797C211.752 162.059 209.433 160.387 207.879 158.081C206.325 155.774 205.638 152.986 205.941 150.215L207.42 121.659L221.702 122.651L222.096 126.286L224.304 145.466C224.304 145.466 239.246 147.349 259.637 152.608C279.486 157.728 285.332 175.486 287.367 187.38Z" fill="#9087E5"/>
    <path d="M232.302 165.619L232.469 160.662" stroke="#C4D0FB" stroke-linecap="square"/>
    <path d="M271.814 134.8C277.288 127.769 276.508 117.946 270.071 112.859C263.636 107.773 253.979 109.349 248.505 116.381C243.031 123.412 243.81 133.235 250.248 138.322C256.685 143.408 266.34 141.832 271.814 134.8Z" fill="#001833"/>
    <path d="M250.234 158.294C249.159 157.51 248.368 156.394 247.98 155.116C247.59 153.838 247.625 152.467 248.078 151.211L255.187 131.547C255.429 130.749 255.831 130.009 256.366 129.373C256.9 128.736 257.56 128.216 258.3 127.844C259.043 127.472 259.85 127.256 260.677 127.208C261.504 127.161 262.331 127.283 263.109 127.568C263.889 127.854 264.6 128.295 265.204 128.867C265.807 129.438 266.289 130.127 266.62 130.892C266.951 131.657 267.124 132.481 267.128 133.316C267.132 134.15 266.969 134.976 266.646 135.745L259.535 155.411C259.21 156.303 258.686 157.107 258.003 157.76C257.32 158.413 256.494 158.898 255.595 159.177C254.693 159.455 253.74 159.52 252.81 159.366C251.881 159.212 250.998 158.843 250.234 158.288V158.294Z" fill="#FFCCD7"/>
    <path d="M251.442 147.328L250.261 146.886C248.886 146.372 247.642 145.559 246.616 144.506C245.588 143.452 244.806 142.184 244.32 140.79C243.836 139.397 243.662 137.913 243.812 136.444C243.962 134.975 244.43 133.558 245.184 132.292L248.926 126.023C250.133 123.999 252.01 122.467 254.227 121.698C256.442 120.929 258.856 120.971 261.046 121.817C263.515 122.772 265.506 124.676 266.583 127.11C267.659 129.545 267.731 132.31 266.784 134.798L264.224 141.509C263.283 143.98 261.414 145.976 259.02 147.066C256.627 148.155 253.904 148.249 251.442 147.328Z" fill="#FFCCD7"/>
    <path d="M252.385 129.58L247.264 133.769L249.274 135.291" stroke="#0C092A" stroke-linecap="square"/>
    <path d="M253.687 132.54C254.283 132.54 254.768 132.053 254.768 131.451C254.768 130.85 254.283 130.362 253.687 130.362C253.09 130.362 252.605 130.85 252.605 131.451C252.605 132.053 253.09 132.54 253.687 132.54Z" fill="#0C092A"/>
    <path d="M249.19 130.248C249.787 130.248 250.272 129.761 250.272 129.159C250.272 128.558 249.787 128.07 249.19 128.07C248.594 128.07 248.109 128.558 248.109 129.159C248.109 129.761 248.594 130.248 249.19 130.248Z" fill="#0C092A"/>
    <path d="M281.964 164.027C281.964 164.027 276.978 176.603 267.266 171.016C251.188 161.765 254.49 149.6 259.023 144.035C260.829 141.819 263.355 140.837 265.992 140.032C258.326 133.221 262.095 127.797 262.095 127.797C262.095 127.797 241.592 126.47 248.222 116.671C254.853 106.873 266.695 108.156 272.973 112.412C287.564 122.307 282.598 132.394 285.928 136.107C304.807 157.182 281.964 164.027 281.964 164.027Z" fill="#001833"/>
    <path d="M268.147 140.895C270.267 139.596 270.941 136.812 269.651 134.677C268.363 132.541 265.6 131.863 263.48 133.161L259.99 135.299C257.871 136.597 257.198 139.381 258.486 141.517C259.776 143.652 262.538 144.331 264.657 143.032L268.147 140.895Z" fill="#FFCCD7"/>
    <path fill-rule="evenodd" clip-rule="evenodd" d="M267.193 136.377L262.242 139.406L267.193 136.377Z" fill="#0C092A"/>
    <path d="M267.193 136.377L262.242 139.406" stroke="#0C092A" stroke-linecap="square"/>
    <path d="M252.257 138.361C252.308 139.054 252.086 139.74 251.637 140.267C251.186 140.794 250.548 141.12 249.859 141.173C249.171 141.225 248.49 141 247.968 140.547C247.445 140.094 247.12 139.451 247.068 138.758C246.958 137.314 248.409 137.327 249.841 137.216C251.273 137.105 252.147 136.917 252.257 138.361Z" fill="#0C092A"/>
    <path d="M161.536 54.7603C160.843 62.0224 158.581 69.0438 154.908 75.332C151.236 81.6199 146.242 87.0221 140.277 91.1594C134.313 95.2969 127.522 98.0693 120.381 99.2824C113.24 100.495 105.923 100.119 98.9413 98.1808C91.9599 96.2423 85.4842 92.7883 79.9683 88.0611C74.4525 83.3337 70.0302 77.4478 67.0118 70.816C63.9931 64.1845 62.4515 56.9676 62.495 49.6719C62.5386 42.3762 64.166 35.1786 67.2633 28.5839C75.9603 10.0986 95.4594 -1.82585 116.84 0.229721C144.13 2.85241 164.142 27.2684 161.536 54.7603Z" fill="#9087E5"/>
    <path d="M143.953 88.3835L142.228 89.7728C140.443 91.1451 138.568 92.3947 136.616 93.5129C130.835 96.814 124.454 98.9124 117.853 99.6838C111.252 100.455 104.565 99.8835 98.1868 98.0029C91.8089 96.1223 85.8709 92.9713 80.7241 88.736C75.5775 84.5009 71.3269 79.2679 68.2246 73.3473C76.1054 67.5116 89.2995 60.5395 106.177 61.9626C134.406 64.3555 143.953 88.3835 143.953 88.3835Z" fill="#C4D0FB"/>
    <path d="M110.317 73.8167C109.999 73.8175 109.682 73.7986 109.367 73.7598C107.273 73.5085 105.364 72.4297 104.06 70.7603C102.755 69.0912 102.162 66.9684 102.411 64.8586L106.178 32.9372C106.428 30.8273 107.499 28.9037 109.157 27.5896C109.977 26.939 110.917 26.4577 111.922 26.1728C112.928 25.8882 113.979 25.8058 115.016 25.9304C116.053 26.055 117.056 26.3841 117.966 26.8991C118.877 27.414 119.678 28.1047 120.324 28.9313C120.97 29.7582 121.448 30.7052 121.73 31.718C122.013 32.7308 122.095 33.79 121.971 34.8347L118.204 66.7561C117.973 68.701 117.044 70.493 115.59 71.794C114.137 73.095 112.261 73.8146 110.317 73.8167Z" fill="#FFCCD7"/>
    <path d="M116.975 57.5095L118.661 57.6992C120.622 57.9221 122.609 57.7066 124.478 57.0682C126.347 56.4298 128.054 55.3843 129.476 54.0057C130.899 52.6273 132.003 50.95 132.708 49.0928C133.414 47.2359 133.705 45.245 133.561 43.2618L132.845 33.4372C132.614 30.2642 131.28 27.2747 129.079 24.9938C126.877 22.7128 123.948 21.2862 120.806 20.9646C117.262 20.6024 113.72 21.6734 110.96 23.9422C108.199 26.2109 106.446 29.4913 106.087 33.0619L105.116 42.6946C104.758 46.2397 105.803 49.7835 108.023 52.5571C110.244 55.3308 113.46 57.1102 116.975 57.5095Z" fill="#FFCCD7"/>
    <path d="M109.161 47.0668L109.163 47.0656C111.486 45.6258 112.211 42.5612 110.782 40.2206L109.313 37.8164C107.884 35.476 104.842 34.7459 102.519 36.1856L102.517 36.1867C100.194 37.6266 99.4698 40.6912 100.899 43.0316L102.367 45.4361C103.796 47.7765 106.838 48.5066 109.161 47.0668Z" fill="#FFCCD7"/>
    <path d="M103.074 40.0742L107.033 44.2901" stroke="#001833" stroke-linecap="square"/>
    <path d="M126.616 34.6855L126.895 42.581L124.107 42.6949" stroke="#001833" stroke-linecap="square"/>
    <path d="M118.313 45.1467C118.083 45.5757 117.939 46.0465 117.889 46.5318C117.839 47.0172 117.884 47.5075 118.023 47.9752C118.161 48.4428 118.389 48.8783 118.695 49.257C119 49.6358 119.376 49.9502 119.802 50.1823C120.228 50.4144 120.695 50.5599 121.177 50.6101C121.659 50.6603 122.146 50.6145 122.61 50.4752C123.074 50.336 123.506 50.1058 123.882 49.7982C124.258 49.4906 124.57 49.1115 124.8 48.6823C125.769 46.8755 123.884 46.0511 122.08 45.075C120.276 44.0989 119.282 43.342 118.313 45.1467Z" fill="#001833"/>
    <path d="M110.199 43.7195L113.965 29.4654L114.859 26.0922C115.699 26.9987 116.681 27.759 117.768 28.3417C121.71 30.4795 133.596 29.6278 135.243 21.2305C136.587 14.3828 129.369 18.319 125.674 17.891C119.867 17.2163 115.838 13.7735 107.886 18.1018C98.3754 23.2861 102.881 35.9947 102.881 35.9947C102.881 35.9947 107.066 34.344 110.199 43.7195Z" fill="#001833"/>
    <path opacity="0.4" d="M119.082 57.7409L114.045 57.2793L118.645 61.8008L119.082 57.7409Z" fill="black"/>
    <path d="M121.248 38.9498C122.012 38.9498 122.632 38.326 122.632 37.5564C122.632 36.7868 122.012 36.1631 121.248 36.1631C120.484 36.1631 119.865 36.7868 119.865 37.5564C119.865 38.326 120.484 38.9498 121.248 38.9498Z" fill="#001833"/>
    <path d="M129.5 38.9498C130.264 38.9498 130.884 38.326 130.884 37.5564C130.884 36.7868 130.264 36.1631 129.5 36.1631C128.736 36.1631 128.117 36.7868 128.117 37.5564C128.117 38.326 128.736 38.9498 129.5 38.9498Z" fill="#001833"/>
    <path d="M99.0791 201.467C97.9028 214.031 92.0432 225.679 82.6812 234.063C81.7407 234.906 80.7706 235.712 79.7703 236.479C77.9849 237.851 76.1099 239.101 74.1578 240.219C65.4052 245.237 55.3389 247.44 45.3087 246.531L44.955 246.5C37.3007 245.765 29.9206 243.248 23.3968 239.148C16.873 235.048 11.384 229.477 7.36277 222.874C6.80466 221.955 6.27251 221.017 5.76609 220.06C2.1703 213.184 0.211585 205.559 0.0448009 197.789C-0.121773 190.019 1.50798 182.316 4.80556 175.29C13.5026 156.809 33.0039 144.88 54.3824 146.936C81.6788 149.558 101.684 173.975 99.0791 201.467Z" fill="#C4D0FB"/>
    <path d="M90.5186 225.14C88.2667 228.417 85.6361 231.412 82.6817 234.063C81.7413 234.906 80.7711 235.711 79.7708 236.479C77.9854 237.851 76.1104 239.101 74.1584 240.219C71.2479 241.887 68.177 243.253 64.9926 244.296L45.3092 246.531L44.9555 246.499C37.3013 245.764 29.9211 243.247 23.3973 239.147C16.8735 235.047 11.3845 229.477 7.36328 222.874C14.8026 209.13 28.093 194.977 51.6896 191.56C74.1856 188.302 86.5489 214.709 90.5186 225.14Z" fill="#9087E5"/>
    <path d="M54.6994 203.383L54.4482 203.4C52.0526 203.51 49.7115 202.658 47.9399 201.03C46.1681 199.402 45.1107 197.131 45 194.718L43.5351 162.706C43.4801 161.511 43.6592 160.316 44.0625 159.191C44.4657 158.066 45.0849 157.031 45.8847 156.147C47.5002 154.361 49.7538 153.296 52.1495 153.184C54.5451 153.072 56.8868 153.923 58.6593 155.551C60.4317 157.179 61.4898 159.449 61.6009 161.862L63.0657 193.873C63.1756 196.244 62.3628 198.564 60.8002 200.34C59.2377 202.117 57.0488 203.208 54.6994 203.383Z" fill="#FFCCD7"/>
    <path d="M60.0485 186.643L61.6871 186.221C63.5908 185.722 65.362 184.806 66.8747 183.54C68.3875 182.273 69.6048 180.685 70.4398 178.891C71.2749 177.096 71.7073 175.139 71.7062 173.157C71.7054 171.175 71.271 169.218 70.4343 167.424L66.2846 158.537C64.9437 155.669 62.643 153.367 59.7859 152.038C56.929 150.707 53.6984 150.434 50.6609 151.264C47.2338 152.201 44.3167 154.472 42.5507 157.576C40.7849 160.679 40.3147 164.363 41.2441 167.816L43.7552 177.13C44.6816 180.557 46.912 183.478 49.9622 185.259C53.0124 187.04 56.6367 187.537 60.0485 186.643Z" fill="#FFCCD7"/>
    <path d="M42.1775 180.65C44.3378 182.315 47.4282 181.9 49.0801 179.723C50.7323 177.547 50.3204 174.434 48.1604 172.769L45.943 171.061C43.783 169.396 40.6926 169.811 39.0404 171.987C37.3883 174.163 37.8001 177.277 39.9602 178.942L42.1775 180.65Z" fill="#FFCCD7"/>
    <path d="M72.9345 176.671C74.211 182.016 73.353 189.854 66.9286 191.492C60.5042 193.13 52.5291 187.955 51.1898 182.621C49.8506 177.287 51.3175 174.308 57.7461 172.667C64.1747 171.027 71.2667 169.699 72.9345 176.671Z" fill="#001833"/>
    <path fill-rule="evenodd" clip-rule="evenodd" d="M40.9336 175.417L45.1545 177.925L40.9336 175.417Z" fill="#001833"/>
    <path d="M40.9336 175.417L45.1545 177.925" stroke="#001833" stroke-linecap="square"/>
    <path d="M56.985 177.495C56.8796 178.459 57.1537 179.426 57.7484 180.189C58.3429 180.951 59.211 181.449 60.1656 181.574C61.1203 181.699 62.0854 181.442 62.8541 180.858C63.6225 180.274 64.1329 179.409 64.2758 178.45C64.5374 176.423 62.4887 176.342 60.4756 176.068C58.4624 175.794 57.2466 175.468 56.985 177.495Z" fill="white"/>
    <path opacity="0.4" d="M62.3743 192.198L57.3457 192.573L62.6024 196.262L62.3743 192.198Z" fill="black"/>
    <path d="M56.3672 169.47C57.1277 169.47 57.7442 168.849 57.7442 168.083C57.7442 167.317 57.1277 166.696 56.3672 166.696C55.6067 166.696 54.9902 167.317 54.9902 168.083C54.9902 168.849 55.6067 169.47 56.3672 169.47Z" fill="#001833"/>
    <path d="M65.9981 166.73C66.7585 166.73 67.375 166.109 67.375 165.343C67.375 164.577 66.7585 163.956 65.9981 163.956C65.2376 163.956 64.6211 164.577 64.6211 165.343C64.6211 166.109 65.2376 166.73 65.9981 166.73Z" fill="#001833"/>
    <path d="M41.3516 245.452L46.8594 249.173C46.8594 249.173 46.6146 262.409 52.3923 261.703C52.3923 261.703 52.4154 263.794 53.5893 263.994C54.7633 264.195 57.963 259.257 57.963 259.257C57.963 259.257 62.3575 257.587 63.226 253.312C64.0944 249.036 64.2534 238.937 62.8974 238.176C61.5414 237.415 48.1631 237.082 48.1631 237.082C48.1631 237.082 42.6092 237.761 41.3516 245.452Z" fill="#FFCCD7"/>
    <path d="M50.6428 235.391L28.4336 227.131" stroke="#CCE3FF" stroke-linecap="square"/>
    <path d="M32.8418 228.366L45.3035 213.085" stroke="#CCE3FF" stroke-linecap="square"/>
    <path d="M41.3184 246.025C41.3184 246.025 40.7388 237.991 51.0471 235.516" stroke="#CCE3FF" stroke-linecap="square"/>
    <path d="M62.0879 163.214L65.1431 170.46L62.5901 171.569" stroke="#001833" stroke-linecap="square"/>
</svg>
