<svg width="522" height="760" viewBox="0 0 522 760" fill="none" xmlns="http://www.w3.org/2000/svg">
    <g id="Illustration">
        <g id="Person / Man / 2">
            <g id="Man / Legs / 1">
                <g id="Group 21">
                    <g id="Shoes">
                        <path id="Shoes_2" fill-rule="evenodd" clip-rule="evenodd" d="M133.615 586.046L153.525 567.996L146.609 549.738L103.996 581.017L138.515 640.584C138.515 640.584 139.624 625.781 137.819 609.383C136.573 598.056 133.615 586.046 133.615 586.046ZM324.062 625.973L319.515 611.483L300.262 612.488L316.286 652.285L377.836 617.034C359.57 611.568 324.062 625.973 324.062 625.973Z" fill="#001833"/>
                    </g>
                    <g id="Legs skin">
                        <path id="Skin" fill-rule="evenodd" clip-rule="evenodd" d="M148.508 572.596L146.319 549.721L121.793 568.07L133.616 586.046L148.508 572.596ZM320.317 613.931L301.283 615.625L308.309 632.469L324.064 625.973L320.317 613.931Z" fill="#FFCCD7"/>
                    </g>
                    <g id="Pants">
                        <path id="Pants_2" d="M223.595 399.106L199.838 317.352L263.194 317.766L297.344 317.766C297.409 337.663 295.04 370.435 282.502 407.753L322.309 593.255C322.804 595.585 321.967 597.91 320.268 599.416L326.318 620.666L301.594 627.787L295.705 607.985L295.551 608.035C292.045 609.181 288.271 607.256 287.191 603.78L247.862 477.224C243.426 483.693 238.593 490.15 233.34 496.561C200.081 537.155 179.352 559.047 168.691 569.579C164.886 573.346 158.965 573.53 154.95 570.452L139.747 582.838L124.652 562.294L139.676 550.053C137.268 546.233 137.665 541.266 140.742 537.876C156.061 520.964 199.172 469.318 223.595 399.106Z" fill="#09074A"/>
                        <mask id="mask0_146_34722" style="mask-type:luminance" maskUnits="userSpaceOnUse" x="124" y="317" width="203" height="311">
                            <path id="Pants_3" d="M223.595 399.106L198.315 317.766H263.194L297.344 317.766C297.409 337.663 295.04 370.435 282.502 407.753L322.309 593.255C322.804 595.585 321.967 597.91 320.268 599.416L326.318 620.665L301.594 627.787L295.705 607.985L295.551 608.035C292.045 609.181 288.271 607.256 287.191 603.78L247.862 477.224C243.426 483.693 238.593 490.15 233.34 496.561C200.081 537.155 179.352 559.047 168.691 569.579C164.886 573.346 158.965 573.53 154.95 570.452L139.747 582.838L124.652 562.294L139.676 550.053C137.268 546.233 137.665 541.266 140.742 537.876C156.061 520.964 199.172 469.319 223.595 399.107L223.595 399.106Z" fill="white"/>
                        </mask>
                        <g mask="url(#mask0_146_34722)">
                        </g>
                    </g>
                    <g id="Overlay">
                        <path id="Path" opacity="0.0987491" fill-rule="evenodd" clip-rule="evenodd" d="M295.707 607.985L295.553 608.035C292.047 609.181 288.273 607.256 287.194 603.78L247.864 477.223L223.598 399.107L200.371 317.766H263.196L282.504 407.752L322.312 593.255C322.807 595.585 321.97 597.91 320.271 599.416L326.32 620.665L301.596 627.787L295.707 607.985Z" fill="white"/>
                    </g>
                    <g id="Pants line">
                        <path id="Pants line_2" d="M308.966 603.065L298.553 606.722L256.77 463.39L230.993 374.967L214.32 317.766H235.454L239.169 332.191L267.799 443.292L308.966 603.065Z" fill="#EFEFEF"/>
                    </g>
                </g>
            </g>
            <g id="Man / Body / 5">
                <g id="Group 36">
                    <g id="Skin color">
                        <path id="Mask" fill-rule="evenodd" clip-rule="evenodd" d="M355.811 245.046C358.334 241.507 360.679 238.219 362.797 235.414C363.083 235.343 363.387 235.269 363.707 235.191C369.456 233.786 380.303 231.136 383.304 228.089C387.757 223.566 393.268 199.8 390.934 197.75C390.921 197.741 390.856 197.69 390.746 197.602C389.4 196.533 381.258 190.067 378.368 190.657C376.425 189.783 375.099 189.199 375.099 189.199L371.06 205.213C370.529 205.671 370.148 206.106 369.974 206.503C369.759 206.992 369.963 207.345 370.459 207.593L369.276 212.284L369.259 212.322C369.201 212.454 369.174 212.576 369.174 212.689L368.663 214.715L365.737 190.679C365.737 190.679 351.72 204.865 348.544 209.47C346.678 212.175 345.374 219.849 346.309 225.719L318.747 257.398L305.249 219.595L275.209 237.283C275.209 237.283 293.615 281.849 309.052 288.124C325.097 288.124 342.828 263.256 355.811 245.046ZM182.653 347.422L178.759 343.967L179.696 285.147L196.752 254.399L169.915 237.283C169.915 237.283 154.673 268.88 154.033 283.113C153.505 294.848 157.813 333.073 159.342 346.131C158.843 347.204 158.396 348.247 158.062 349.155C155.835 355.226 155.593 357.774 155.217 361.716C155.123 362.705 155.021 363.783 154.876 365.026C154.28 370.152 154.239 375.306 156.265 382.166C157.567 386.574 158.957 390.321 159.682 390.163C161.505 389.766 161.575 387.519 161.575 387.519L160.715 383.346L160.325 379.271C160.325 379.271 166.803 397.313 167.352 397.213C169.293 396.862 169.602 393.699 169.602 393.699C169.602 393.699 171.632 399.926 172.654 399.701C175.252 399.127 175.006 396.243 175.006 396.243C175.006 396.243 175.826 396.932 176.456 396.757C178.81 396.106 178.74 392.11 178.699 389.766C178.695 389.577 178.692 389.4 178.691 389.235C178.691 389.235 177.648 381.859 177.861 379.585C178.017 377.92 178.154 376.438 178.276 375.115C179.082 366.365 179.244 364.611 180.053 363.334C181.661 364.384 182.257 366.183 182.889 368.093C183.349 369.481 183.829 370.928 184.731 372.189C187.477 376.024 195.134 379.648 190.853 370.86C188.476 365.981 187.885 362.979 187.336 360.192C187.014 358.558 186.707 356.997 186.063 355.175C184.319 350.246 182.653 347.422 182.653 347.422Z" fill="#FFCCD7"/>
                    </g>
                    <g id="T-Shirt">
                        <path id="T-Shirt_2" fill-rule="evenodd" clip-rule="evenodd" d="M299.205 317.658H199.927L198.262 257.868L168.926 236.698C168.926 236.698 181.352 216.704 207.004 193.584C219.607 187.752 222.123 187.547 227.237 187.129C227.967 187.069 228.75 187.005 229.622 186.92H230.649H231.676L234.758 186.92L240.92 186.92L248.109 186.92L252.217 186.92L259.406 186.92L264.541 188.974L268.649 191.028H270.704L272.025 191.279C285.739 194.972 298.698 202.586 306.275 216.089C306.886 217.177 307.444 218.225 307.952 219.234L308.059 219.213L308.391 220.119C310.222 223.885 311.346 227.096 311.942 229.831L318.214 246.982L302.889 256.258L299.205 317.658Z" fill="#9087E5"/>
                    </g>
                    <path id="Stroke 16" opacity="0.200521" d="M198.262 257.865L206.225 263.196L225.366 241.207" stroke="#0C092A" stroke-width="5"/>
                    <path id="Phone" d="M380.055 218.995L378.669 225.708H356.207L366.802 172.262H389.264C388.682 175.199 387.31 182.116 385.15 193.014L380.733 190.994L379.358 190.618L378.275 190.678L377.805 190.994V192.293L382.607 199.106L378.934 200.685L373.282 203.61L371.65 204.725L371.017 205.303L370.5 205.76L370.171 206.152L369.974 206.502L369.889 206.958L369.974 207.159L370.072 207.314L370.215 207.454L372.067 208.1L376.292 206.958H380.469L374.894 208.1L371.221 210.268L369.974 211.429L369.268 212.282V213.062L370.5 213.609L378.275 212.728L375.7 214.11L373.995 215.154L372.431 215.95L371.221 217.489V218.249L371.65 218.695L372.735 219.265H374.391H377.727L380.055 218.995Z" fill="#5E93D1"/>
                    <path id="Fill 23" fill-rule="evenodd" clip-rule="evenodd" d="M356.205 225.708H352.488L363.083 172.262H366.8L356.205 225.708Z" fill="#020101"/>
                    <path id="Fill 34" fill-rule="evenodd" clip-rule="evenodd" d="M370.668 178.467C370.357 180.028 369.437 181.166 368.612 181.006C367.788 180.848 367.37 179.453 367.681 177.892C367.991 176.331 368.912 175.194 369.737 175.353C370.562 175.512 370.978 176.906 370.668 178.467Z" fill="#020101"/>
                </g>
            </g>
            <g id="Group 782">
                <path id="Path_2" d="M256.574 206C255.993 206.001 255.412 205.971 254.836 205.91C251.003 205.511 247.509 203.801 245.122 201.155C242.735 198.509 241.65 195.144 242.106 191.799L248.999 141.197C249.456 137.852 251.417 134.803 254.45 132.72C255.952 131.688 257.672 130.925 259.512 130.474C261.352 130.023 263.276 129.892 265.174 130.089C267.071 130.287 268.906 130.809 270.573 131.625C272.239 132.441 273.705 133.536 274.887 134.846C276.069 136.157 276.944 137.659 277.461 139.264C277.978 140.87 278.128 142.549 277.902 144.205L271.008 194.807C270.586 197.89 268.884 200.731 266.225 202.794C263.565 204.856 260.132 205.997 256.574 206Z" fill="#FFCCD7"/>
                <path id="Path_3" d="M270.168 182.035L273.412 182.398C277.185 182.823 281.005 182.412 284.6 181.193C288.195 179.974 291.478 177.978 294.214 175.346C296.95 172.715 299.073 169.512 300.431 165.967C301.788 162.422 302.348 158.621 302.07 154.835L300.694 136.078C300.248 130.021 297.684 124.313 293.449 119.959C289.214 115.604 283.581 112.881 277.538 112.267C270.721 111.575 263.909 113.62 258.599 117.951C253.29 122.282 249.918 128.545 249.226 135.362L247.359 153.752C246.671 160.52 248.681 167.285 252.952 172.581C257.222 177.876 263.408 181.273 270.168 182.035Z" fill="#FFCCD7"/>
                <path id="Path_4" d="M255.141 162.099L255.145 162.097C259.613 159.348 261.007 153.497 258.258 149.029L255.434 144.439C252.685 139.971 246.834 138.577 242.366 141.326L242.363 141.328C237.895 144.077 236.501 149.927 239.25 154.395L242.074 158.986C244.823 163.454 250.673 164.848 255.141 162.099Z" fill="#FFCCD7"/>
                <path id="Path_5" d="M243.434 148.75L251.049 156.8" stroke="#001833" stroke-linecap="square"/>
                <path id="Path_6" d="M288.717 138.461L289.252 153.534L283.891 153.752" stroke="#001833" stroke-linecap="square"/>
                <path id="Path_7" d="M272.745 158.434C272.302 159.253 272.024 160.152 271.928 161.079C271.832 162.005 271.92 162.941 272.186 163.834C272.452 164.727 272.891 165.558 273.478 166.281C274.066 167.005 274.79 167.605 275.609 168.048C276.428 168.491 277.327 168.769 278.253 168.864C279.18 168.96 280.116 168.873 281.009 168.607C281.901 168.341 282.733 167.902 283.456 167.314C284.179 166.727 284.779 166.004 285.222 165.184C287.086 161.735 283.459 160.161 279.99 158.297C276.52 156.434 274.609 154.989 272.745 158.434Z" fill="#001833"/>
                <path id="Path_8" d="M257.138 155.709L264.383 128.496L266.102 122.056C267.716 123.787 269.607 125.238 271.696 126.351C279.279 130.432 302.141 128.806 305.309 112.775C307.893 99.7015 294.011 107.216 286.903 106.399C275.733 105.111 267.985 98.5383 252.69 106.802C234.397 116.699 243.063 140.961 243.063 140.961C243.063 140.961 251.113 137.81 257.138 155.709Z" fill="#001833"/>
                <path id="Path_9" opacity="0.4" d="M272.169 182.479L262.48 181.598L271.327 190.231L272.169 182.479Z" fill="#0C092A"/>
                <path id="Path_10" d="M278.391 146.604C279.86 146.604 281.051 145.413 281.051 143.944C281.051 142.474 279.86 141.283 278.391 141.283C276.921 141.283 275.73 142.474 275.73 143.944C275.73 145.413 276.921 146.604 278.391 146.604Z" fill="#001833"/>
                <path id="Path_11" d="M294.262 146.604C295.732 146.604 296.923 145.413 296.923 143.944C296.923 142.474 295.732 141.283 294.262 141.283C292.793 141.283 291.602 142.474 291.602 143.944C291.602 145.413 292.793 146.604 294.262 146.604Z" fill="#001833"/>
            </g>
            <g id="Group 235">
                <path id="Path_12" d="M521.07 32H393.07V136H521.07V32Z" fill="#C4D0FB"/>
                <path id="Path_13" d="M457.069 120.679C462.371 120.679 466.669 117.134 466.669 112.762C466.669 108.389 462.371 104.844 457.069 104.844C451.767 104.844 447.469 108.389 447.469 112.762C447.469 117.134 451.767 120.679 457.069 120.679Z" fill="white"/>
                <path id="Path_14" d="M454.218 86.4711C455.842 83.6974 457.774 81.1123 459.978 78.7646C461.597 77.0637 463.05 75.2144 464.316 73.2418C465.265 71.6246 465.745 69.7798 465.705 67.91C465.705 65.129 464.791 62.8768 462.963 61.1533C461.135 59.4299 458.689 58.5667 455.626 58.5633C449.822 58.5633 445.441 61.1176 442.483 66.2257L434.672 59.9685C436.801 56.2396 439.888 53.1345 443.62 50.9694C447.276 48.8803 451.576 47.8359 456.52 47.8359C462.541 47.8359 467.338 49.4433 470.912 52.6586C474.486 55.8739 476.271 60.3048 476.268 65.9515C476.314 68.3761 475.948 70.7908 475.186 73.0949C474.562 74.9481 473.681 76.7063 472.567 78.3191C471.311 80.0195 469.965 81.6538 468.536 83.2152C466.811 85.0419 465.285 87.0424 463.98 89.1835C462.946 91.0709 462.435 93.1959 462.498 95.3428H452.241C452.241 91.7848 452.9 88.8276 454.218 86.4711Z" fill="white"/>
            </g>
        </g>
    </g>
</svg>
