<svg width="56" height="56" viewBox="0 0 56 56" fill="none" xmlns="http://www.w3.org/2000/svg">
    <circle cx="28" cy="28" r="28" fill="#BF83FF"/>
    <mask id="mask0_146_33888" style="mask-type:alpha" maskUnits="userSpaceOnUse" x="0" y="0" width="56" height="56">
        <circle cx="28" cy="28" r="28" fill="#C4C4C4"/>
    </mask>
    <g mask="url(#mask0_146_33888)">
        <path fill-rule="evenodd" clip-rule="evenodd" d="M28.0002 14.4961C22.3769 14.4961 17.8184 19.0546 17.8184 24.6779V25.7142C16.7865 25.8874 16.0002 26.7848 16.0002 27.8659V30.3594C16.0002 31.4624 16.8186 32.3742 17.8813 32.5207C18.2787 36.0914 20.5226 39.1047 23.6365 40.5839V43.9311C15.9353 44.3456 9.81836 50.7215 9.81836 58.5262H46.182C46.182 50.7215 40.065 44.3456 32.3638 43.9311V40.5839C35.4777 39.1047 37.7217 36.0914 38.119 32.5207C39.1817 32.3742 40.0002 31.4624 40.0002 30.3594V27.8659C40.0002 26.7848 39.2139 25.8874 38.182 25.7142V24.6779C38.182 19.0546 33.6234 14.4961 28.0002 14.4961Z" fill="#D0C6AC"/>
        <mask id="mask1_146_33888" style="mask-type:luminance" maskUnits="userSpaceOnUse" x="9" y="14" width="38" height="45">
            <path fill-rule="evenodd" clip-rule="evenodd" d="M28.0002 14.4961C22.3769 14.4961 17.8184 19.0546 17.8184 24.6779V25.7142C16.7865 25.8874 16.0002 26.7848 16.0002 27.8659V30.3594C16.0002 31.4624 16.8186 32.3742 17.8813 32.5207C18.2787 36.0914 20.5226 39.1047 23.6365 40.5839V43.9311C15.9353 44.3456 9.81836 50.7215 9.81836 58.5262H46.182C46.182 50.7215 40.065 44.3456 32.3638 43.9311V40.5839C35.4777 39.1047 37.7217 36.0914 38.119 32.5207C39.1817 32.3742 40.0002 31.4624 40.0002 30.3594V27.8659C40.0002 26.7848 39.2139 25.8874 38.182 25.7142V24.6779C38.182 19.0546 33.6234 14.4961 28.0002 14.4961Z" fill="white"/>
        </mask>
        <g mask="url(#mask1_146_33888)">
            <rect width="48" height="44.0301" transform="translate(4 14.4961)" fill="#FFCCD7"/>
            <rect x="4" y="14.4961" width="48" height="44.0301" fill="#FFCCD7"/>
            <path fill-rule="evenodd" clip-rule="evenodd" d="M17.8184 31.3818V32.8254C17.8184 38.4487 22.3769 43.0073 28.0002 43.0073C33.6234 43.0073 38.182 38.4487 38.182 32.8254V31.3818C38.182 37.0051 33.6234 41.5637 28.0002 41.5637C22.3769 41.5637 17.8184 37.0051 17.8184 31.3818Z" fill="black" fill-opacity="0.1"/>
        </g>
        <path fill-rule="evenodd" clip-rule="evenodd" d="M28.0911 50.5552C33.0616 50.5552 37.0911 48.1735 37.0911 45.2355C37.0911 45.1541 37.088 45.0732 37.0819 44.9927C42.4195 47.1669 46.182 52.4072 46.182 58.5262H9.81836C9.81836 52.3354 13.6696 47.0441 19.1069 44.9175C19.0964 45.0227 19.0911 45.1287 19.0911 45.2355C19.0911 48.1735 23.1205 50.5552 28.0911 50.5552Z" fill="#6223A9"/>
        <mask id="mask2_146_33888" style="mask-type:luminance" maskUnits="userSpaceOnUse" x="9" y="44" width="38" height="15">
            <path fill-rule="evenodd" clip-rule="evenodd" d="M28.0911 50.5552C33.0616 50.5552 37.0911 48.1735 37.0911 45.2355C37.0911 45.1541 37.088 45.0732 37.0819 44.9927C42.4195 47.1669 46.182 52.4072 46.182 58.5262H9.81836C9.81836 52.3354 13.6696 47.0441 19.1069 44.9175C19.0964 45.0227 19.0911 45.1287 19.0911 45.2355C19.0911 48.1735 23.1205 50.5552 28.0911 50.5552Z" fill="white"/>
        </mask>
        <g mask="url(#mask2_146_33888)">
            <rect x="4" y="38.6768" width="48" height="19.8496" fill="#6223A9"/>
        </g>
        <path fill-rule="evenodd" clip-rule="evenodd" d="M25.4551 34.8867C25.4551 36.282 26.5947 37.413 28.0005 37.413C29.4063 37.413 30.546 36.282 30.546 34.8867" fill="#0C092A"/>
        <g opacity="0.3">
            <path fill-rule="evenodd" clip-rule="evenodd" d="M25.8184 31.459C25.8184 32.2563 26.7952 32.9026 28.0002 32.9026C29.2052 32.9026 30.182 32.2563 30.182 31.459" fill="#0C092A"/>
        </g>
        <ellipse cx="23.2725" cy="28.2101" rx="1.09091" ry="1.08271" fill="#0C092A"/>
        <ellipse cx="32.7276" cy="28.2101" rx="1.09091" ry="1.08271" fill="#0C092A"/>
        <path d="M20.6601 25.893C21.3719 24.899 23.3233 24.3415 25.0042 24.7512C25.1993 24.7988 25.3962 24.6804 25.4441 24.4868C25.492 24.2932 25.3727 24.0978 25.1777 24.0503C23.2255 23.5745 20.9659 24.2199 20.0673 25.4749C19.9509 25.6374 19.9893 25.8627 20.153 25.9781C20.3167 26.0936 20.5437 26.0555 20.6601 25.893Z" fill="#0C092A"/>
        <path d="M35.3399 25.893C34.6281 24.899 32.6767 24.3415 30.9958 24.7512C30.8008 24.7988 30.6038 24.6804 30.5559 24.4868C30.508 24.2932 30.6273 24.0978 30.8223 24.0503C32.7745 23.5745 35.0341 24.2199 35.9327 25.4749C36.0491 25.6374 36.0107 25.8627 35.847 25.9781C35.6833 26.0936 35.4563 26.0555 35.3399 25.893Z" fill="#0C092A"/>
        <mask id="mask3_146_33888" style="mask-type:luminance" maskUnits="userSpaceOnUse" x="4" y="8" width="48" height="51">
            <rect x="4" y="8" width="48" height="50.5263" fill="white"/>
        </mask>
        <g mask="url(#mask3_146_33888)">
            <path fill-rule="evenodd" clip-rule="evenodd" d="M11.0916 34.1656C10.9794 28.6012 16.2405 16.9858 18.1825 14.6769C19.6231 12.9642 23.5817 11.5281 28.0007 11.6092C32.4198 11.6903 36.5211 12.658 38.0007 14.4964C40.2414 17.2804 44.8859 27.864 44.9098 34.1656C44.9268 38.6408 43.1757 43.1268 40.728 43.3686C39.346 43.5052 37.5904 43.3279 35.481 43.115L35.4808 43.115L35.4807 43.1149L35.4805 43.1149L35.4803 43.1149C34.5151 43.0175 33.4758 42.9125 32.3643 42.8268V40.5843C35.8042 38.9502 38.1825 35.444 38.1825 31.3823V26.3275C36.2719 25.2828 34.6454 24.0216 33.2903 22.7401C33.9004 23.8661 34.5982 24.8886 35.385 25.6615C29.8245 24.1131 25.9806 20.9422 23.677 18.4561C22.618 20.4554 20.7213 23.3792 17.8188 25.6064V31.3823C17.8188 35.444 20.1971 38.9502 23.637 40.5843V42.9618C22.3728 43.1336 21.1979 43.3516 20.1167 43.5521C18.1442 43.918 16.4835 44.2261 15.1615 44.0905C12.5755 43.8253 11.1818 38.64 11.0916 34.1656Z" fill="#E6E6E6"/>
            <mask id="mask4_146_33888" style="mask-type:luminance" maskUnits="userSpaceOnUse" x="11" y="11" width="34" height="34">
                <path fill-rule="evenodd" clip-rule="evenodd" d="M11.0916 34.1656C10.9794 28.6012 16.2405 16.9858 18.1825 14.6769C19.6231 12.9642 23.5817 11.5281 28.0007 11.6092C32.4198 11.6903 36.5211 12.658 38.0007 14.4964C40.2414 17.2804 44.8859 27.864 44.9098 34.1656C44.9268 38.6408 43.1757 43.1268 40.728 43.3686C39.346 43.5052 37.5904 43.3279 35.481 43.115L35.4808 43.115L35.4807 43.1149L35.4805 43.1149L35.4803 43.1149C34.5151 43.0175 33.4758 42.9125 32.3643 42.8268V40.5843C35.8042 38.9502 38.1825 35.444 38.1825 31.3823V26.3275C36.2719 25.2828 34.6454 24.0216 33.2903 22.7401C33.9004 23.8661 34.5982 24.8886 35.385 25.6615C29.8245 24.1131 25.9806 20.9422 23.677 18.4561C22.618 20.4554 20.7213 23.3792 17.8188 25.6064V31.3823C17.8188 35.444 20.1971 38.9502 23.637 40.5843V42.9618C22.3728 43.1336 21.1979 43.3516 20.1167 43.5521C18.1442 43.918 16.4835 44.2261 15.1615 44.0905C12.5755 43.8253 11.1818 38.64 11.0916 34.1656Z" fill="white"/>
            </mask>
            <g mask="url(#mask4_146_33888)">
                <rect x="3.81836" y="8" width="48.3636" height="50.5263" fill="#0C092A"/>
            </g>
        </g>
    </g>
</svg>
