<svg width="686" height="548" viewBox="0 0 686 548" fill="none" xmlns="http://www.w3.org/2000/svg">
    <g id="Illustration">
        <g id="Person / Man / 6">
            <g id="Man / Head / 1">
                <g id="Group 30">
                    <path id="Fill 1" fill-rule="evenodd" clip-rule="evenodd" d="M214.34 82.8158C214.34 90.3264 209.434 96.4148 203.383 96.4148C197.332 96.4148 192.426 90.3264 192.426 82.8158C192.426 75.3051 197.332 69.2168 203.383 69.2168C209.434 69.2168 214.34 75.3051 214.34 82.8158Z" fill="#19141E"/>
                    <g id="Face color">
                        <path id="Face" d="M188.41 136.689L187.952 121.07C187.952 121.07 189.597 121.199 192.028 121.329C204.259 121.984 213.039 113.442 213.262 101.196C213.391 94.1508 212.775 86.5048 210.336 80.7461L210.214 80.1948L169.617 75.5098L167.341 98.4938C165.974 94.5142 154.688 90.0016 151.738 95.7004C145.344 108.049 168.204 116.363 168.204 116.363L165.883 136.876" fill="#FFCCD7"/>
                        <path id="Path" d="M156.195 100.525L164.266 106.484" stroke="#0C092A"/>
                    </g>
                    <path id="Fill 5" opacity="0.398926" fill-rule="evenodd" clip-rule="evenodd" d="M187.953 121.068L174.98 118.324L187.891 126.928L187.953 121.068Z" fill="#0C092A"/>
                    <path id="Path_2" d="M198.497 96.6559L201.538 107.347L197.17 108.532" stroke="#001833" stroke-linecap="square"/>
                    <path id="Fill 9" fill-rule="evenodd" clip-rule="evenodd" d="M193.54 98.6168C193.807 100.073 192.827 101.467 191.352 101.73C189.876 101.993 188.463 101.026 188.196 99.5706C187.929 98.1145 188.909 96.7208 190.385 96.4572C191.861 96.1942 193.273 97.1608 193.54 98.6168Z" fill="#001833"/>
                    <path id="Fill 11" fill-rule="evenodd" clip-rule="evenodd" d="M208.603 98.6168C208.87 100.073 207.89 101.467 206.414 101.73C204.938 101.993 203.525 101.026 203.259 99.5706C202.992 98.1145 203.971 96.7208 205.447 96.4572C206.923 96.1942 208.336 97.1608 208.603 98.6168Z" fill="#001833"/>
                    <path id="Hair" d="M170.357 102.416C166.508 95.9167 160.939 93.9345 158.439 93.3532C157.442 90.5102 156.682 87.213 156.148 83.7062C154.716 74.3209 161.632 65.758 167.219 63.2992C172.874 60.8108 182.625 57.3626 196.898 62.0433C206.493 65.1924 212.627 57.6532 218.273 60.8731C227.922 66.3769 218.947 90.4724 194.482 84.3513C176.981 79.9725 176.531 81.0709 176.381 84.2537C175.896 94.5418 174.27 100.594 170.357 102.416Z" fill="#001833"/>
                    <g id="Group 21">
                        <path id="Stroke 20" d="M190.496 110.457C190.496 110.457 192.411 114.524 196.549 114.428" stroke="#001833"/>
                    </g>
                    <path id="Stroke 22" fill-rule="evenodd" clip-rule="evenodd" d="M197.019 98.7464C197.019 102.131 194.238 104.875 190.806 104.875C187.376 104.875 184.594 102.131 184.594 98.7464C184.594 95.3614 187.376 92.6172 190.806 92.6172C194.238 92.6172 197.019 95.3614 197.019 98.7464Z" stroke="#001833"/>
                    <path id="Stroke 24" fill-rule="evenodd" clip-rule="evenodd" d="M212.664 98.7464C212.664 102.131 209.882 104.875 206.451 104.875C203.02 104.875 200.238 102.131 200.238 98.7464C200.238 95.3614 203.02 92.6172 206.451 92.6172C209.882 92.6172 212.664 95.3614 212.664 98.7464Z" stroke="#001833"/>
                    <path id="Stroke 26" d="M199.733 99.0325H197.047" stroke="#001833" stroke-width="4"/>
                    <path id="Stroke 28" d="M184.593 98.7493H169.246" stroke="#001833"/>
                </g>
            </g>
            <g id="Man / Legs / 1">
                <g id="Group 23">
                    <g id="Shoes">
                        <path id="Shoes_2" fill-rule="evenodd" clip-rule="evenodd" d="M204.388 487.734L204.539 474.925L187.773 466.605L185.34 503.225H243.427C233.544 492.258 204.388 487.734 204.388 487.734ZM129.982 488.234L130.133 473.846L119.202 482.613L110.407 487.438L107.504 503.225H147.26C142.262 489.813 129.982 488.234 129.982 488.234Z" fill="#0D0B6D"/>
                    </g>
                    <g id="Leg skin">
                        <path id="Skin" fill-rule="evenodd" clip-rule="evenodd" d="M130.133 473.846L113.367 468.883L110.406 487.438L129.982 488.234L130.133 473.846ZM204.539 474.925L187.773 469.962L186.422 486.939L204.388 487.734L204.539 474.925Z" fill="#FFCCD7"/>
                    </g>
                    <g id="Pants">
                        <path id="Pants_2" d="M206.943 470.724L206.556 482.613H184.441L184.829 470.689C182.351 469.71 180.581 467.355 180.521 464.573L176.961 286.504L138.497 466.28C137.955 468.809 136.051 470.773 133.633 471.496L132.187 482.613H108.999L110.994 470.34C109.063 468.865 107.944 466.44 108.329 463.85L143.742 225.579L175.743 225.579L175.741 225.488H214.501L212.178 464.24C212.145 467.379 209.928 470.006 206.943 470.724Z" fill="#09074A"/>
                    </g>
                    <path id="Fill 15" opacity="0.197824" fill-rule="evenodd" clip-rule="evenodd" d="M176.762 289.325L183.548 259.688L178.442 349.54L176.762 289.325Z" fill="#0C092A"/>
                    <g id="Pants line">
                        <path id="Pants line_2" d="M152.021 225.807L155.735 226.404L115.229 469.218L111.504 468.605L152.021 225.807Z" fill="#EFEFEF"/>
                    </g>
                </g>
            </g>
            <g id="Man / Body / 5">
                <g id="Group 18">
                    <g id="Skin color">
                        <path id="Skin_2" fill-rule="evenodd" clip-rule="evenodd" d="M267.738 143.905L267.472 139.384C267.472 139.384 267.477 136.239 267.892 132.843C267.997 131.991 268.225 131.1 268.47 130.149L268.47 130.148C269.199 127.308 270.067 123.927 268.169 119.437C265.636 113.447 271.692 117.583 273.033 120.431C273.552 121.533 273.703 123.197 273.852 124.848V124.848C274.025 126.757 274.197 128.649 274.933 129.629C276.094 129.009 276.865 128.202 276.865 128.202L289.92 111.629C290.34 111.072 291.118 110.905 291.74 111.234L292.443 111.609C293.182 112.004 293.417 112.932 292.943 113.609C292.037 114.909 290.456 117.104 288.804 119.398C285.805 123.56 282.572 128.048 282.709 128.119L283.055 128.53L298.387 112.708C298.866 112.182 299.67 112.088 300.261 112.489L301.181 113.114C301.852 113.567 301.996 114.473 301.495 115.098C299.86 117.164 295.813 121.639 292.444 125.365L292.444 125.365L292.443 125.365C289.528 128.589 287.121 131.251 287.222 131.306L287.68 131.739L301.953 119.4C302.459 118.848 303.321 118.786 303.906 119.249L304.603 119.806C305.215 120.291 305.306 121.171 304.806 121.765L291.325 134.171L291.714 134.77L303.417 126.723C303.954 126.254 304.763 126.254 305.306 126.718L305.63 127.004C306.205 127.504 306.269 128.364 305.769 128.942C304.972 129.864 303.395 131.076 301.516 132.521L301.516 132.521L301.516 132.521C299.353 134.184 296.788 136.155 294.55 138.348C293.318 139.556 292.324 140.74 291.316 141.94L291.316 141.94C289.671 143.901 287.991 145.902 285.178 148.119C283.5 149.446 281.98 150.219 280.535 150.953C280.33 151.057 280.127 151.161 279.925 151.264L267.738 143.905ZM162.518 133.533C162.518 133.533 171.537 133.516 178.046 133.494C184.555 133.472 192.74 136.166 192.74 136.166C192.74 136.166 196.999 145.58 182.204 144.728C167.409 143.874 162.518 133.533 162.518 133.533ZM113.186 171.63C113.186 171.63 98.7485 192.954 99.0758 204.813C99.4622 218.795 144.882 253.151 144.882 253.151L156.654 243.716L128.06 204.492L138.458 182.698L113.186 171.63Z" fill="#FFCCD7"/>
                    </g>
                    <g id="Sweater color">
                        <path id="Sweater" d="M153.234 226.618L160.266 235.901L139.087 254.063C139.087 254.063 100.222 226.038 99.0221 204.064C98.2579 190.068 110.703 170.09 110.703 170.09C110.703 170.09 126.324 145.527 144.382 137.238C148.087 135.536 157.072 134.117 162.518 133.532C164.188 133.352 163.19 133.992 163.763 135.076C164.361 136.207 166.184 137.884 167.445 139.137C170.069 141.746 175.241 143.721 178.019 144.125C180.137 144.434 184.228 144.912 186.197 144.651C188.165 144.391 190.305 143.517 190.877 142.998C191.448 142.478 192.299 141.829 192.741 140.828C193.182 139.827 193.159 140.113 193.159 139.19C193.159 138.267 193.111 138.403 193.019 137.964C192.927 137.524 192.927 137.26 192.873 137.033C192.633 136.028 192.741 136.165 192.741 136.165C203.4 139.332 208.8 140.504 212.683 145.112L242.36 165.603L262.666 139.535L288.866 156.842C288.866 156.842 265.668 199.363 248.856 204.064C235.313 207.851 221.594 196.074 216.77 191.35L222.501 219.975C223.42 224.917 219.021 226.787 215.102 226.612L153.234 226.618Z" fill="#9087E5"/>
                    </g>
                    <path id="Fill 9_2" opacity="0.201242" fill-rule="evenodd" clip-rule="evenodd" d="M216.68 191.369L213.133 177.578L222.71 196.425L216.68 191.369Z" fill="#0C092A"/>
                    <path id="Stroke 16" opacity="0.200591" d="M150.605 223.295L134.066 200.218L154.045 170.41" stroke="#0C092A" stroke-width="5"/>
                </g>
            </g>
        </g>
        <g id="Person / Man / 3">
            <g id="Man / Head / 1_2">
                <g id="Group 21_2">
                    <g id="Face color_2">
                        <path id="Face_2" d="M497.841 145.562L498.297 130.179C498.297 130.179 496.781 130.297 494.512 130.42C482.203 131.089 473.396 122.481 473.427 110.154C473.443 103.626 474.102 96.3689 476.183 89.9227L516.509 85.3086L519.378 107.992C520.736 104.072 531.339 99.5811 534.27 105.194C540.62 117.355 517.913 125.544 517.913 125.544L520.219 145.747" fill="#FFCCD7"/>
                        <path id="Path_3" d="M529.465 110.455L521.395 114.427" stroke="#0C092A" stroke-linecap="square"/>
                    </g>
                    <path id="Path_4" d="M488.597 106.533L487.11 113.654L490.301 114.263" stroke="#001833" stroke-linecap="square"/>
                    <path id="Fill 4" opacity="0.399344" fill-rule="evenodd" clip-rule="evenodd" d="M498.298 130.179L511.184 127.477L498.36 135.951L498.298 130.179Z" fill="#0C092A"/>
                    <path id="Fill 8" fill-rule="evenodd" clip-rule="evenodd" d="M494.761 106.082C494.496 107.516 495.47 108.888 496.935 109.147C498.401 109.407 499.804 108.454 500.07 107.021C500.335 105.587 499.361 104.214 497.896 103.955C496.429 103.696 495.026 104.648 494.761 106.082Z" fill="#001833"/>
                    <path id="Fill 10" fill-rule="evenodd" clip-rule="evenodd" d="M478.742 106.082C478.476 107.516 479.45 108.888 480.916 109.147C482.382 109.407 483.785 108.454 484.05 107.021C484.316 105.587 483.342 104.214 481.876 103.955C480.41 103.696 479.007 104.648 478.742 106.082Z" fill="#001833"/>
                    <g id="Group 15">
                        <path id="Stroke 14" d="M495.164 118.4C495.164 118.4 492.456 122.716 487.093 122.351" stroke="#001833"/>
                    </g>
                    <path id="Hair_2" d="M527 103.143C528.791 96.6295 535.272 72.5854 534.508 68.4808C533.624 63.7237 530.239 57.884 512.844 51.759C498.106 46.5696 489.792 50.3273 487.274 53.5248C483.442 58.39 476.184 89.923 476.184 89.923C476.184 89.923 482.19 94.1033 503.486 93.3823C503.486 93.3823 500.538 105.923 512.623 105.203C512.623 105.203 511.328 109.426 517.176 110.754C520.385 105.873 524.643 103.901 527 103.143Z" fill="#001833"/>
                </g>
            </g>
            <g id="Man / Legs / 1_2">
                <g id="Group 20">
                    <g id="Shoes_3">
                        <path id="Shoes_4" fill-rule="evenodd" clip-rule="evenodd" d="M603.889 451.585L587.689 436.957L593.317 422.16L627.988 447.51L599.902 495.785C599.902 495.785 599 483.789 600.468 470.499C601.483 461.319 603.889 451.585 603.889 451.585ZM447.785 483.543L451.485 471.799L467.15 472.614L454.113 504.867L404.033 476.298C418.894 471.868 447.785 483.543 447.785 483.543Z" fill="#0D0B6D"/>
                    </g>
                    <g id="Skin legs">
                        <path id="Skin_3" fill-rule="evenodd" clip-rule="evenodd" d="M591.771 440.685L593.553 422.146L613.508 437.017L603.888 451.586L591.771 440.685ZM450.833 473.784L466.32 475.157L460.603 488.808L447.784 483.543L450.833 473.784Z" fill="#FFCCD7"/>
                    </g>
                    <g id="Pants_3">
                        <path id="Pants_4" d="M480.183 286.871L436.979 477.068L448.879 480.057H448.884L462.737 483.542L462.806 483.558L467.601 484.763C467.601 484.763 489.613 416.394 508.99 355.401C513.706 362.961 519.017 370.432 524.994 377.699C567.457 429.327 593.439 451.395 593.439 451.395L597.303 445.661L597.313 445.646L606.6 431.867L613.316 421.903C613.316 421.903 555.169 367.865 529.006 291.847C533.605 277.047 536.792 266.482 537.611 263.101C542.3 243.824 542.396 234.991 542.396 234.287H492.125L471.965 234.287C472.7 246.85 474.727 265.532 480.182 286.87L480.183 286.871Z" fill="#B9B2F0"/>
                    </g>
                    <g id="Overlay">
                        <path id="Mask" fill-rule="evenodd" clip-rule="evenodd" d="M436.977 477.068L448.877 480.057H448.882L462.736 483.542L462.805 483.558L467.6 484.763C467.6 484.763 489.611 416.394 508.989 355.401C516.552 331.59 523.71 308.907 529.004 291.847C533.603 277.047 536.791 266.482 537.61 263.101C542.299 243.824 542.395 234.991 542.395 234.287H492.123L480.181 286.87L436.977 477.068Z" fill="#B9B2F0"/>
                    </g>
                </g>
            </g>
            <g id="Man / Body / 5_2">
                <g id="Group 25">
                    <g id="Hands">
                        <path id="Mask_2" fill-rule="evenodd" clip-rule="evenodd" d="M454.94 245.254C454.94 245.254 462.109 246.112 463.473 249.165C467.376 257.899 459.289 273.513 459.289 273.513C459.289 273.513 462.715 271.524 463.397 273.264C463.701 274.038 464.388 280.223 451.551 280.64C450.188 280.684 446.91 278.046 446.91 278.046C446.91 278.046 449.3 282.39 445.64 283.244C445.64 283.244 439.74 274.832 439.65 272.96C439.56 271.088 441.453 261.613 442.477 259.7C443.501 257.786 454.94 245.254 454.94 245.254ZM551.883 260.49C553.126 256.994 554.229 255.14 554.229 255.14L572.946 256.005C574.847 261.161 575.053 262.931 575.517 266.923C575.538 267.103 575.559 267.288 575.581 267.477C576.006 271.114 576.035 274.77 574.59 279.636C573.662 282.762 572.671 285.421 572.155 285.309C570.854 285.026 570.805 283.433 570.805 283.433L571.418 280.473L571.696 277.582C571.696 277.582 567.078 290.38 566.687 290.309C565.303 290.06 565.083 287.817 565.083 287.817C565.083 287.817 563.636 292.234 562.908 292.074C561.055 291.667 561.23 289.621 561.23 289.621C561.23 289.621 560.645 290.11 560.196 289.986C558.518 289.524 558.568 286.688 558.597 285.025C558.6 284.892 558.602 284.766 558.603 284.65C558.603 284.65 559.346 279.417 559.195 277.805C558.421 269.589 557.089 267.635 556.358 266.563C556.289 266.462 556.225 266.368 556.168 266.278C555.021 267.023 554.596 268.298 554.145 269.653C553.818 270.638 553.476 271.664 552.833 272.558C550.875 275.279 545.416 277.85 548.468 271.616C550.163 268.155 550.584 266.026 550.975 264.049C551.205 262.89 551.424 261.783 551.883 260.49Z" fill="#FFCCD7"/>
                    </g>
                    <path id="Stroke 4" opacity="0.150646" d="M456.668 256.537C456.668 256.537 454.866 263.013 448.685 265.031C446.523 265.736 447.063 274.066 441.764 273.069" stroke="#0C092A" stroke-width="3"/>
                    <g id="Shirt">
                        <path id="Shirt_2" fill-rule="evenodd" clip-rule="evenodd" d="M522.019 145.926L519.636 136.119L509.279 136.749L502.159 145.374L497.529 137.458L494.224 137.661L493.197 146.817C478.121 152.476 475.491 158.012 472.192 164.957C471.837 165.704 471.474 166.467 471.088 167.248C466.737 176.041 472.049 237.073 472.049 237.073L537.352 234.128C537.352 234.128 528.503 146.589 522.707 145.994C522.478 145.971 522.248 145.948 522.019 145.926Z" fill="#EFEFEF"/>
                    </g>
                    <path id="Stroke 8" d="M473.375 237.178L470.312 188.91" stroke="#12173A" stroke-width="5"/>
                    <g id="Coat">
                        <path id="Coat_2" fill-rule="evenodd" clip-rule="evenodd" d="M551.618 273.868L556.268 294.596L521.316 297.4C521.316 297.4 518.314 198.195 518.609 169.029C518.744 155.673 522.708 145.998 522.708 145.998C522.708 145.998 538.242 150.472 541.763 152.761C550.06 158.154 568.093 183.987 571.302 197.643C576.342 219.081 575.821 256.138 575.821 256.138L549.349 254.914L541.723 214.643L540.559 224.952L550.176 267.589C549.845 268.652 549.57 269.454 549.349 269.997C548.245 272.713 547.612 274.294 547.745 274.884C547.869 275.433 548.413 275.763 549.746 275.094C550.099 274.916 550.723 274.508 551.618 273.868ZM470.1 254.919L466.497 262.273L443.336 249.658L462.229 203.044C462.229 203.044 467.143 166.94 470.105 162.119C475.833 152.798 493.085 146.863 493.085 146.863C493.085 146.863 493.08 146.868 493.08 146.873C492.909 147.305 492.77 149.806 492.461 155.413C492.251 159.203 491.964 164.412 491.535 171.36C490.585 186.725 481.579 297.002 481.579 297.002L469.121 295.559L470.1 254.919Z" fill="#09074A"/>
                    </g>
                    <g id="Lapel">
                        <path id="Shape" fill-rule="evenodd" clip-rule="evenodd" d="M534.77 176.338L519.051 209.02C519.051 209.02 518.588 173.07 518.802 164.42C518.953 158.333 522.707 145.998 522.707 145.998L528.947 151.057C532.908 154.269 533.927 159.806 531.361 164.169L531.278 164.309L532.543 165.431C535.655 168.192 536.559 172.619 534.77 176.338ZM493.085 146.863L488.694 208.711L477.234 178.269C475.57 173.847 476.91 168.877 480.588 165.835L481.076 165.431L480.858 164.326C480.035 160.175 481.623 155.918 484.986 153.261L493.085 146.863Z" fill="#0C092A"/>
                    </g>
                    <path id="Stroke 23" opacity="0.197498" d="M541.848 215.304L540.309 207.784L532.527 193.721" stroke="#0C092A" stroke-width="5"/>
                </g>
            </g>
        </g>
    </g>
</svg>
